<svg width="144px" height="144px" viewBox="0 0 16 16" fill="none" xmlns="http://www.w3.org/2000/svg">
<path d="M3.1 7.82143V4.9C3.1 2.19381 5.29381 0 8 0C8.89483 0 9.73364 0.239863 10.4556 0.658801C9.95375 1.02057 9.55158 1.51204 9.29823 2.08411C8.90332 1.90174 8.46354 1.8 8 1.8C6.28792 1.8 4.9 3.18792 4.9 4.9V8.17251L3.6723 11.2H12.2277L11.1 8.66849V6.70877C11.5287 6.89609 12.0022 7 12.5 7C12.6353 7 12.7687 6.99233 12.9 6.97739V8.28571L15 13H1L3.1 7.82143Z" fill="#F5F8FA"/>
<path d="M7.99995 16C6.69373 16 5.58249 15.1652 5.17065 14H10.8292C10.4174 15.1652 9.30617 16 7.99995 16Z" fill="#F5F8FA"/>
<path d="M12.5 1.5C11.3954 1.5 10.5 2.39543 10.5 3.5C10.5 4.60457 11.3954 5.5 12.5 5.5C13.6046 5.5 14.5 4.60457 14.5 3.5C14.5 2.39543 13.6046 1.5 12.5 1.5Z" fill="#F5F8FA"/>
</svg>
