<svg width="157" height="70" viewBox="0 0 157 70" fill="none" xmlns="http://www.w3.org/2000/svg">
<circle cx="34.5472" cy="34.5472" r="34.5472" fill="#7D2EFF" fill-opacity="0.1"/>
<path d="M42.9627 25.2781C35.5189 20.6237 27.8472 23.34 24.9823 25.2593L23.7578 23.4315C27.0644 21.2163 35.7033 18.1443 44.1291 23.4127L42.9627 25.2781ZM31.5167 26.337C28.1068 27.0231 25.4665 29.1206 23.7267 30.6503L22.274 28.9982C24.0608 27.4271 27.0705 24.9875 31.0828 24.1802C35.1729 23.3573 40.1054 24.2652 45.6303 28.9881L44.2008 30.6604C39.1106 26.3091 34.8487 25.6666 31.5167 26.337ZM25.0234 35.4605C26.6583 31.5375 30.7396 29.2168 34.947 29.8179L35.3263 29.8721C36.2321 30.0015 37.1155 30.2569 37.9506 30.6309L38.5849 30.915C39.5545 31.3492 40.4497 31.9331 41.2379 32.6454L42.0483 33.3776C42.449 33.7397 42.7786 34.1735 43.0202 34.6566L43.5945 35.8053C44.019 36.6543 43.899 37.6743 43.289 38.4016C42.4149 39.4438 40.847 39.5438 39.8476 38.621L37.1324 36.114C35.9229 34.9974 34.2116 34.6069 32.6375 35.0883C31.205 35.5264 30.0731 36.6305 29.5994 38.0516L29.3866 38.69C28.9269 40.0689 28.9893 41.5686 29.5619 42.9046L30.0972 44.1537C30.6882 45.5328 31.5972 46.7525 32.7499 47.713L35.3083 49.845L36.7167 48.155L34.1583 46.0229C33.2723 45.2846 32.5736 44.3471 32.1193 43.2871L31.584 42.038C31.2237 41.1972 31.1844 40.2535 31.4737 39.3857L31.6865 38.7473C31.9351 38.0015 32.5292 37.422 33.2809 37.1921C34.1071 36.9394 35.0052 37.1444 35.6399 37.7304L38.3552 40.2374C40.2775 42.0123 43.2933 41.82 44.9747 39.8153C46.1479 38.4164 46.3788 36.4545 45.5623 34.8214L44.9879 33.6727C44.6239 32.9447 44.1272 32.291 43.5232 31.7453L42.7129 31.0131C41.7536 30.1463 40.6641 29.4356 39.4841 28.9072L38.8499 28.6231C37.8276 28.1653 36.7463 27.8526 35.6374 27.6942L35.2581 27.64C30.0579 26.8971 25.0134 29.7654 22.9927 34.6142C22.2613 36.369 21.9756 38.2775 22.1608 40.1695L22.5904 44.5578L24.7799 44.3434L24.3503 39.9551C24.2005 38.4243 24.4317 36.8803 25.0234 35.4605ZM39.6618 47.2604C36.5591 45.7093 34.1552 43.0457 32.9293 39.8007L34.9873 39.0232C36.0176 41.7504 38.038 43.989 40.6456 45.2926L41.9835 45.9615L40.9998 47.9293L39.6618 47.2604ZM39.7205 33.508C37.9179 31.8205 35.4585 31.0217 33.0084 31.328L32.8652 31.3459C31.3615 31.5338 29.9447 32.1543 28.7869 33.1319C27.0257 34.619 26.0096 36.8068 26.0096 39.1118V40.9133C26.0096 42.3169 26.262 43.709 26.7548 45.0233L28.1342 48.7015L30.1941 47.929L28.8148 44.2508C28.4146 43.1836 28.2096 42.0531 28.2096 40.9133V39.1118C28.2096 37.4548 28.94 35.8819 30.2062 34.8129C31.0386 34.1101 32.0571 33.664 33.1381 33.5289L33.2813 33.511C35.0829 33.2858 36.8915 33.8732 38.217 35.114L40.7397 37.4757L42.2432 35.8697L39.7205 33.508Z" fill="black"/>
<circle cx="121.577" cy="34.5472" r="34.5472" fill="#7D2EFF" fill-opacity="0.1"/>
<path d="M108.03 21H114.06V27.0308H108.03V21Z" fill="black"/>
<path d="M118.081 21H124.112V27.0308H118.081V21Z" fill="black"/>
<path d="M134.163 21H128.132V27.0308H134.163V21Z" fill="black"/>
<path d="M108.03 32.0564H114.06V38.0872H108.03V32.0564Z" fill="black"/>
<path d="M124.112 32.0564H118.081V38.0872H124.112V32.0564Z" fill="black"/>
<path d="M118.081 42.9692H124.112V49H118.081V42.9692Z" fill="black"/>
<path d="M134.163 32.0564H128.132V38.0872H134.163V32.0564Z" fill="black"/>
</svg>
