<svg width="108" height="108" viewBox="0 0 108 108" fill="none" xmlns="http://www.w3.org/2000/svg">
<circle cx="54" cy="54" r="54" fill="#7D2EFF" fill-opacity="0.1"/>
<path d="M43.7144 30V34.2857L34.2857 34.2857L34.2857 43.7144H30L30 30H43.7144Z" fill="#232A31"/>
<path d="M64.2858 30V34.2857L73.7143 34.2857V43.7144H78V30L64.2858 30Z" fill="#232A31"/>
<path d="M73.7143 73.7143H64.2858V78H78V64.2858H73.7143V73.7143Z" fill="#232A31"/>
<path d="M34.2857 73.7143L34.2857 64.2858H30V78H43.7144V73.7143H34.2857Z" fill="#232A31"/>
<path d="M50.5714 48V53.1429H47.1429V48H50.5714Z" fill="#232A31"/>
<path d="M46.3791 58.9633L46.3762 58.9619L47.9095 55.8953C48.9859 56.4335 50.9792 57.4286 54 57.4286C57.0208 57.4286 59.0141 56.4335 60.0905 55.8953L61.6238 58.9619L61.6209 58.9633C60.4104 59.5686 57.8333 60.8571 54 60.8571C50.1667 60.8571 47.5896 59.5686 46.3791 58.9633Z" fill="#232A31"/>
<path d="M60.8571 53.1429V48H57.4286V53.1429H60.8571Z" fill="#232A31"/>
<path d="M38.5714 43.7143C38.5714 40.874 40.874 38.5714 43.7143 38.5714H64.2857C67.126 38.5714 69.4286 40.874 69.4286 43.7143V64.2857C69.4286 67.126 67.126 69.4286 64.2857 69.4286H43.7143C40.874 69.4286 38.5714 67.126 38.5714 64.2857V43.7143ZM43.7143 42.3429C42.9569 42.3429 42.3429 42.9569 42.3429 43.7143V64.2857C42.3429 65.0431 42.9569 65.6571 43.7143 65.6571H64.2857C65.0431 65.6571 65.6571 65.0431 65.6571 64.2857V43.7143C65.6571 42.9569 65.0431 42.3429 64.2857 42.3429H43.7143Z" fill="#232A31"/>
</svg>
