<svg width="108" height="108" viewBox="0 0 108 108" fill="none" xmlns="http://www.w3.org/2000/svg">
<circle cx="54" cy="54" r="54" fill="#7D2EFF" fill-opacity="0.1"/>
<path d="M64.2178 41.4059C64.2178 47.7053 59.1112 52.8119 52.8119 52.8119C46.5126 52.8119 41.4059 47.7053 41.4059 41.4059C41.4059 35.1066 46.5126 30 52.8119 30C59.1112 30 64.2178 35.1066 64.2178 41.4059Z" fill="black"/>
<path d="M56.6139 56.6139H45.6331C43.0254 56.6139 40.4592 57.2661 38.1681 58.5113C33.1341 61.2472 30 66.5175 30 72.2469V75.6237H56.6139V56.6139Z" fill="black"/>
<path d="M76.4377 57.2619C76.4377 52.9669 72.9559 49.4851 68.6609 49.4851C64.3659 49.4851 60.8841 52.9669 60.8841 57.2619C60.8841 60.6508 63.0518 63.5334 66.0762 64.5989V74.8893L69.3943 78L73.3346 74.8893L71.0534 71.7786L73.3346 69.1863L71.0534 66.5941V64.6637C74.1778 63.6546 76.4377 60.7222 76.4377 57.2619ZM68.6609 60.2862C66.9906 60.2862 65.6366 58.9322 65.6366 57.2619C65.6366 55.5916 66.9906 54.2376 68.6609 54.2376C70.3312 54.2376 71.6852 55.5916 71.6852 57.2619C71.6852 58.9322 70.3312 60.2862 68.6609 60.2862Z" fill="black"/>
</svg>
