<svg width="16" height="16" viewBox="0 0 16 16" fill="none" xmlns="http://www.w3.org/2000/svg">
<path d="M8 11C9.10457 11 10 9.65685 10 8C10 6.34315 9.10457 5 8 5C6.89543 5 6 6.34315 6 8C6 9.65685 6.89543 11 8 11Z" fill="#464E56"/>
<path d="M16 8C16 11.3137 12.4183 14 8 14C3.58172 14 0 11.3137 0 8C0 4.68629 3.58172 2 8 2C12.4183 2 16 4.68629 16 8ZM14.3 8C14.3 6.9982 13.7625 5.96163 12.6369 5.11736C11.5106 4.2727 9.87688 3.7 8 3.7C6.12312 3.7 4.48936 4.2727 3.36315 5.11736C2.23745 5.96163 1.7 6.9982 1.7 8C1.7 9.0018 2.23745 10.0384 3.36315 10.8826C4.48936 11.7273 6.12312 12.3 8 12.3C9.87688 12.3 11.5106 11.7273 12.6369 10.8826C13.7625 10.0384 14.3 9.0018 14.3 8Z" fill="#464E56"/>
</svg>
