<svg width="24px" height="24px" viewBox="0 0 24 24" fill="none" xmlns="http://www.w3.org/2000/svg">
    <path fill-rule="evenodd" clip-rule="evenodd" d="M12 8.00186C10.8954 8.00186 10 7.10602 10 6.00093C10 4.89585 10.8954 4 12 4C13.1046 4 14 4.89585 14 6.00093C14 7.10602 13.1046 8.00186 12 8.00186ZM12 14.0019C10.8954 14.0019 10 13.106 10 12.0009C10 10.8958 10.8954 10 12 10C13.1046 10 14 10.8958 14 12.0009C14 13.106 13.1046 14.0019 12 14.0019ZM12 20.0019C10.8954 20.0019 10 19.106 10 18.0009C10 16.8958 10.8954 16 12 16C13.1046 16 14 16.8958 14 18.0009C14 19.106 13.1046 20.0019 12 20.0019Z" fill="#1D2228"/>
</svg>
