<svg width="144px" height="144px" viewBox="0 0 16 16" fill="none" xmlns="http://www.w3.org/2000/svg">
<path d="M4.92303 5.69232C4.24329 5.69232 3.69226 6.24336 3.69226 6.92309C3.69226 7.60283 4.24329 8.15386 4.92303 8.15386C5.60276 8.15386 6.1538 7.60283 6.1538 6.92309C6.1538 6.24336 5.60276 5.69232 4.92303 5.69232Z" fill="#1D2228"/>
<path d="M7.7948 6.92309C7.7948 6.24336 8.34583 5.69232 9.02557 5.69232C9.7053 5.69232 10.2563 6.24336 10.2563 6.92309C10.2563 7.60283 9.7053 8.15386 9.02557 8.15386C8.34583 8.15386 7.7948 7.60283 7.7948 6.92309Z" fill="#1D2228"/>
<path d="M0 4C0 2.89543 0.895431 2 2 2H14C15.1046 2 16 2.89543 16 4V9.84616C16 10.6781 15.492 11.3914 14.7693 11.6929V14.3077L12.3078 11.8462H2C0.895431 11.8462 0 10.9507 0 9.84615V4ZM2 4V9.84615L14 9.84616V4H2Z" fill="#1D2228"/>
</svg>
