<svg width="40" height="40" viewBox="0 0 40 40" fill="none" xmlns="http://www.w3.org/2000/svg">
<rect width="40" height="40" rx="8" fill="#464E56"/>
<g clip-path="url(#clip0_4040_14589)">
<path fill-rule="evenodd" clip-rule="evenodd" d="M20 28.2773C24.4183 28.2773 28 24.6956 28 20.2773C28 15.8591 24.4183 12.2773 20 12.2773C15.5817 12.2773 12 15.8591 12 20.2773C12 24.6956 15.5817 28.2773 20 28.2773ZM20 24.7773C18.3431 24.7773 17 23.8819 17 22.7773H23C23 23.8819 21.6569 24.7773 20 24.7773ZM18 20.0273C18 20.7177 17.4404 21.2773 16.75 21.2773C16.0596 21.2773 15.5 20.7177 15.5 20.0273C15.5 19.337 16.0596 18.7773 16.75 18.7773C17.4404 18.7773 18 19.337 18 20.0273ZM23.25 21.2773C23.9404 21.2773 24.5 20.7177 24.5 20.0273C24.5 19.337 23.9404 18.7773 23.25 18.7773C22.5596 18.7773 22 19.337 22 20.0273C22 20.7177 22.5596 21.2773 23.25 21.2773Z" fill="#F0F3F5"/>
</g>
<defs>
<clipPath id="clip0_4040_14589">
<rect width="16" height="16" fill="white" transform="translate(12 12.2773)"/>
</clipPath>
</defs>
</svg>
