<svg width="40" height="40" viewBox="0 0 40 40" fill="none" xmlns="http://www.w3.org/2000/svg">
<rect width="40" height="40" rx="8" fill="#464E56"/>
<path fill-rule="evenodd" clip-rule="evenodd" d="M21.6369 16.7869C21.4584 14.8193 19.7925 13.2773 17.7639 13.2773C15.6161 13.2773 13.875 15.0057 13.875 17.1376C13.875 18.1506 14.268 19.0724 14.911 19.761C13.7671 20.4641 13 21.7585 13 23.2389C13 25.4692 14.7411 27.2773 16.8889 27.2773L22.1538 27.2774C24.8303 27.2774 27 25.1077 27 22.4312C27 22.3656 26.9986 22.3002 26.9961 22.2352C26.9986 22.1663 27 22.097 27 22.0273C27 19.1278 24.7365 16.7773 21.9444 16.7773C21.8412 16.7773 21.7386 16.7806 21.6369 16.7869ZM25.3972 22.1753L25.3949 22.237L25.3973 22.2988C25.3991 22.3427 25.4 22.3868 25.4 22.4312C25.4 24.224 23.9466 25.6774 22.1538 25.6774L16.8889 25.6773C15.6811 25.6773 14.6 24.643 14.6 23.2389C14.6 21.8347 15.6811 20.8004 16.8889 20.8004C17.0377 20.8004 17.1818 20.8153 17.3204 20.8434L18.4338 21.0691L19.014 20.0923C19.6381 19.0414 20.7309 18.3773 21.9444 18.3773C23.7965 18.3773 25.4 19.9541 25.4 22.0273C25.4 22.077 25.399 22.1263 25.3972 22.1753Z" fill="#F0F3F5"/>
</svg>
