<svg width="40" height="40" viewBox="0 0 40 40" fill="none" xmlns="http://www.w3.org/2000/svg">
<rect width="40" height="40" rx="8" fill="#464E56"/>
<path fill-rule="evenodd" clip-rule="evenodd" d="M21.8415 16.0732C21.6407 13.8597 19.7666 12.125 17.4844 12.125C15.0681 12.125 13.1094 14.0694 13.1094 16.4678C13.1094 17.6074 13.5515 18.6444 14.2748 19.4191C12.9879 20.2101 12.125 21.6662 12.125 23.3317C12.125 25.8409 14.0837 27.875 16.5 27.875L22.423 27.875C25.434 27.875 27.8749 25.4341 27.8749 22.4231C27.8749 22.3493 27.8735 22.2758 27.8706 22.2026C27.8735 22.125 27.8749 22.0471 27.8749 21.9688C27.8749 18.7068 25.3286 16.0625 22.1875 16.0625C22.0713 16.0625 21.956 16.0661 21.8415 16.0732ZM26.0718 22.1352L26.0692 22.2047L26.072 22.2742C26.074 22.3235 26.0749 22.3731 26.0749 22.4231C26.0749 24.44 24.4399 26.075 22.423 26.075L16.5 26.075C15.1413 26.075 13.925 24.9114 13.925 23.3317C13.925 21.752 15.1413 20.5884 16.5 20.5884C16.6675 20.5884 16.8295 20.6052 16.9854 20.6368L18.2381 20.8908L18.8907 19.7919C19.5929 18.6096 20.8223 17.8625 22.1875 17.8625C24.271 17.8625 26.0749 19.6363 26.0749 21.9688C26.0749 22.0246 26.0739 22.0801 26.0718 22.1352Z" fill="#F0F3F5"/>
</svg>
