<svg width="40" height="40" viewBox="0 0 40 40" fill="none" xmlns="http://www.w3.org/2000/svg">
<rect width="40" height="40" rx="8" fill="#464E56"/>
<path d="M26.75 21.875C26.75 26.3485 24.3837 29 19.9942 29C15.6046 29 12.0462 24.875 13.6358 18.875C14.2319 16.625 14.828 19.25 16.4176 19.25C16.4176 17 16.0202 15.875 20.3916 11C21.1864 15.875 26.75 17.4015 26.75 21.875Z" fill="#F0F3F5"/>
<path d="M23.375 24.05C23.375 26.0072 21.864 27.5938 20 27.5938C18.136 27.5938 16.625 26.0072 16.625 24.05C16.625 22.0928 18.5 21.2938 20 19.7188C21.5 21.2938 23.375 22.0928 23.375 24.05Z" fill="#464E56"/>
</svg>
