<svg width="40" height="40" viewBox="0 0 40 40" fill="none" xmlns="http://www.w3.org/2000/svg">
<rect width="40" height="40" rx="8" fill="#464E56"/>
<g clip-path="url(#clip0_4040_14547)">
<path d="M26 21.944C26 25.9205 23.8967 28.2773 19.9948 28.2773C16.093 28.2773 12.93 24.6107 14.3429 19.2773C14.8728 17.2773 15.4027 19.6107 16.8156 19.6107C16.8156 17.6107 16.4624 16.6107 20.3481 12.2773C21.0546 16.6107 26 17.9676 26 21.944Z" fill="#F0F3F5"/>
<path d="M23 23.8773C23 25.617 21.6569 27.0273 20 27.0273C18.3431 27.0273 17 25.617 17 23.8773C17 22.1376 18.6667 21.4273 20 20.0273C21.3333 21.4273 23 22.1376 23 23.8773Z" fill="#464E56"/>
</g>
<defs>
<clipPath id="clip0_4040_14547">
<rect width="16" height="16" fill="white" transform="translate(12 12.2773)"/>
</clipPath>
</defs>
</svg>
