<svg width="40" height="40" viewBox="0 0 40 40" fill="none" xmlns="http://www.w3.org/2000/svg">
<rect width="40" height="40" rx="8" fill="#F0F3F5"/>
<path d="M20.0012 25.3672L16.7812 26.7272V27.2772H23.2213V26.7272L20.0012 25.3672Z" fill="#232A31"/>
<path d="M20 22.2178V27.2778" stroke="#232A31" stroke-width="1.6"/>
<path d="M23.4503 14.8773C23.7003 15.8273 23.8403 16.7873 23.8403 17.6473C23.8403 19.7573 22.1203 21.4873 20.0003 21.4873C17.8803 21.4873 16.1603 19.7673 16.1603 17.6473C16.1603 16.7873 16.3003 15.8273 16.5503 14.8773H23.4503ZM24.6203 13.2773H15.3803C14.8703 14.7073 14.5703 16.2573 14.5703 17.6473C14.5703 20.6473 17.0003 23.0873 20.0103 23.0873C23.0203 23.0873 25.4503 20.6573 25.4503 17.6473C25.4503 16.2573 25.1503 14.7073 24.6403 13.2773H24.6203Z" fill="#232A31"/>
<path d="M20.0002 22.2869C17.6702 22.2869 15.7302 20.5469 15.4102 18.2969H24.5802C24.2602 20.5569 22.3202 22.2869 19.9902 22.2869H20.0002Z" fill="#232A31"/>
<path d="M23.5503 19.0971C22.9803 20.4971 21.6003 21.4771 20.0003 21.4771C18.4003 21.4771 17.0203 20.4871 16.4503 19.0971H23.5503ZM25.4303 17.4971H14.5703C14.5703 17.4971 14.5703 17.5971 14.5703 17.6471C14.5703 20.6471 17.0003 23.0871 20.0103 23.0871C23.0203 23.0871 25.4503 20.6571 25.4503 17.6471C25.4503 17.5971 25.4503 17.5471 25.4503 17.4971H25.4303Z" fill="#232A31"/>
</svg>
