<svg width="40" height="40" viewBox="0 0 40 40" fill="none" xmlns="http://www.w3.org/2000/svg">
<rect width="40" height="40" rx="8" fill="#F0F3F5"/>
<path d="M20.0014 25.7266L16.3789 27.2566V27.8753H23.6239V27.2566L20.0014 25.7266Z" fill="#232A31"/>
<path d="M20 22.1826V27.8751" stroke="#232A31" stroke-width="1.8"/>
<path d="M23.8826 13.925C24.1638 14.9937 24.3213 16.0737 24.3213 17.0412C24.3213 19.415 22.3863 21.3613 20.0013 21.3613C17.6163 21.3613 15.6813 19.4262 15.6813 17.0412C15.6813 16.0737 15.8388 14.9937 16.1201 13.925H23.8826ZM25.1988 12.125H14.8038C14.2301 13.7337 13.8926 15.4775 13.8926 17.0412C13.8926 20.4162 16.6263 23.1613 20.0126 23.1613C23.3988 23.1613 26.1326 20.4275 26.1326 17.0412C26.1326 15.4775 25.7951 13.7337 25.2213 12.125H25.1988Z" fill="#232A31"/>
<path d="M20.0016 22.2602C17.3804 22.2602 15.1979 20.3027 14.8379 17.7715H25.1541C24.7941 20.314 22.6116 22.2602 19.9904 22.2602H20.0016Z" fill="#232A31"/>
<path d="M23.9951 18.6721C23.3538 20.2471 21.8013 21.3496 20.0013 21.3496C18.2013 21.3496 16.6488 20.2358 16.0076 18.6721H23.9951ZM26.1101 16.8721H13.8926C13.8926 16.8721 13.8926 16.9846 13.8926 17.0408C13.8926 20.4158 16.6263 23.1608 20.0126 23.1608C23.3988 23.1608 26.1326 20.4271 26.1326 17.0408C26.1326 16.9846 26.1326 16.9283 26.1326 16.8721H26.1101Z" fill="#232A31"/>
</svg>
