<svg width="40" height="40" viewBox="0 0 40 40" fill="none" xmlns="http://www.w3.org/2000/svg">
<rect width="40" height="40" rx="8" fill="#464E56"/>
<path d="M20.0012 25.0898L16.7812 26.4498V26.9998H23.2213V26.4498L20.0012 25.0898Z" fill="#F0F3F5"/>
<path d="M20 21.9404V27.0004" stroke="#F0F3F5" stroke-width="1.6"/>
<path d="M23.4503 14.6C23.7003 15.55 23.8403 16.51 23.8403 17.37C23.8403 19.48 22.1203 21.21 20.0003 21.21C17.8803 21.21 16.1603 19.49 16.1603 17.37C16.1603 16.51 16.3003 15.55 16.5503 14.6H23.4503ZM24.6203 13H15.3803C14.8703 14.43 14.5703 15.98 14.5703 17.37C14.5703 20.37 17.0003 22.81 20.0103 22.81C23.0203 22.81 25.4503 20.38 25.4503 17.37C25.4503 15.98 25.1503 14.43 24.6403 13H24.6203Z" fill="#F0F3F5"/>
<path d="M20.0002 22.0095C17.6702 22.0095 15.7302 20.2695 15.4102 18.0195H24.5802C24.2602 20.2795 22.3202 22.0095 19.9902 22.0095H20.0002Z" fill="#F0F3F5"/>
<path d="M23.5503 18.8197C22.9803 20.2197 21.6003 21.1997 20.0003 21.1997C18.4003 21.1997 17.0203 20.2097 16.4503 18.8197H23.5503ZM25.4303 17.2197H14.5703C14.5703 17.2197 14.5703 17.3197 14.5703 17.3697C14.5703 20.3697 17.0003 22.8097 20.0103 22.8097C23.0203 22.8097 25.4503 20.3797 25.4503 17.3697C25.4503 17.3197 25.4503 17.2697 25.4503 17.2197H25.4303Z" fill="#F0F3F5"/>
</svg>
