<svg width="40" height="40" viewBox="0 0 40 40" fill="none" xmlns="http://www.w3.org/2000/svg">
<rect width="40" height="40" rx="8" fill="#464E56"/>
<g clip-path="url(#clip0_4212_20883)">
<path d="M19.318 21.492L16.9523 17.3906C16.6823 16.9149 16.168 16.6191 15.6151 16.6191C14.7666 16.6191 14.0723 17.3134 14.0723 18.162V23.5106H18.1608C19.2023 23.5106 19.8451 22.3791 19.3308 21.4791L19.318 21.492Z" stroke="#F0F3F5" stroke-width="1.8"/>
<path d="M14.3262 27.6245C13.5162 27.6245 12.8477 26.9559 12.8477 26.1459V20.6816H27.1577V26.1459C27.1577 26.9688 26.4891 27.6245 25.6791 27.6245H14.3262Z" fill="#464E56"/>
<path d="M26.1175 21.7105V26.4933C26.1175 26.7376 25.9117 26.9433 25.6675 26.9433H14.3275C14.0832 26.9433 13.8775 26.7376 13.8775 26.4933V21.7105H26.1303M28.1875 20.7783H11.8203V26.4933C11.8203 27.8819 12.9389 29.0005 14.3275 29.0005H25.6675C27.056 29.0005 28.1746 27.8819 28.1746 26.4933V20.7783H28.1875Z" fill="#F0F3F5"/>
<path d="M11 20.5635H29" stroke="#F0F3F5" stroke-width="1.8"/>
<path d="M21.9414 17.4286C21.9414 14.2143 23.1885 14.2143 23.1885 11" stroke="#F0F3F5" stroke-width="1.8"/>
<path d="M25.7988 17.4286C25.7988 14.2143 27.046 14.2143 27.046 11" stroke="#F0F3F5" stroke-width="1.8"/>
<path d="M16.3878 11.7841C15.5392 11.2955 14.4592 11.5912 13.9706 12.427C13.482 13.2755 13.7778 14.3555 14.6135 14.8441C15.462 15.3327 16.542 15.037 17.0306 14.2012C17.5192 13.3527 17.2235 12.2727 16.3878 11.7841Z" fill="#F0F3F5"/>
<path d="M13.25 24.5H26.75V24.5C26.75 26.9853 24.7353 29 22.25 29H17.75C15.2647 29 13.25 26.9853 13.25 24.5V24.5Z" fill="#F0F3F5"/>
</g>
<defs>
<clipPath id="clip0_4212_20883">
<rect width="18" height="18" fill="white" transform="translate(11 11)"/>
</clipPath>
</defs>
</svg>
