<svg width="40" height="40" viewBox="0 0 40 40" fill="none" xmlns="http://www.w3.org/2000/svg">
<rect width="40" height="40" rx="8" fill="#464E56"/>
<g clip-path="url(#clip0_4040_14496)">
<path d="M19.3933 21.6029L17.2905 17.9572C17.0505 17.5343 16.5933 17.2715 16.1019 17.2715C15.3476 17.2715 14.7305 17.8886 14.7305 18.6429V23.3972H18.3648C19.2905 23.3972 19.8619 22.3915 19.4048 21.5915L19.3933 21.6029Z" stroke="#F0F3F5" stroke-width="1.6"/>
<path d="M14.9588 27.0542C14.2388 27.0542 13.6445 26.46 13.6445 25.74V20.8828H26.3645V25.74C26.3645 26.4714 25.7702 27.0542 25.0502 27.0542H14.9588Z" fill="#464E56"/>
<path d="M25.439 21.7973V26.0488C25.439 26.2659 25.2562 26.4488 25.039 26.4488H14.959C14.7419 26.4488 14.559 26.2659 14.559 26.0488V21.7973H25.4505M27.279 20.9688H12.7305V26.0488C12.7305 27.2831 13.7248 28.2773 14.959 28.2773H25.039C26.2733 28.2773 27.2676 27.2831 27.2676 26.0488V20.9688H27.279Z" fill="#F0F3F5"/>
<path d="M12 20.7773H28" stroke="#F0F3F5" stroke-width="1.6"/>
<path d="M21.7266 17.9916C21.7266 15.1345 22.8351 15.1345 22.8351 12.2773" stroke="#F0F3F5" stroke-width="1.6"/>
<path d="M25.1543 17.9916C25.1543 15.1345 26.2629 15.1345 26.2629 12.2773" stroke="#F0F3F5" stroke-width="1.6"/>
<path d="M16.7883 12.9746C16.034 12.5404 15.074 12.8032 14.6397 13.5461C14.2054 14.3004 14.4683 15.2604 15.2111 15.6946C15.9654 16.1289 16.9254 15.8661 17.3597 15.1232C17.794 14.3689 17.5311 13.4089 16.7883 12.9746Z" fill="#F0F3F5"/>
<path d="M14 24.2773H26C26 26.4865 24.2091 28.2773 22 28.2773H18C15.7909 28.2773 14 26.4865 14 24.2773Z" fill="#F0F3F5"/>
</g>
<defs>
<clipPath id="clip0_4040_14496">
<rect width="16" height="16" fill="white" transform="translate(12 12.2773)"/>
</clipPath>
</defs>
</svg>
