<svg width="40" height="40" viewBox="0 0 40 40" fill="none" xmlns="http://www.w3.org/2000/svg">
<rect width="40" height="40" rx="8" fill="#F0F3F5"/>
<path d="M20.9 13.2773H19.2V15.2773H15C13.8954 15.2773 13 16.1728 13 17.2773V25.2773C13 26.3819 13.8954 27.2773 15 27.2773H25C26.1046 27.2773 27 26.3819 27 25.2773V17.2773C27 16.1728 26.1046 15.2773 25 15.2773H20.9V13.2773ZM16.0002 19.7773C16.0002 19.2251 16.4479 18.7773 17.0002 18.7773C17.5525 18.7773 18.0002 19.2251 18.0002 19.7773V20.7773C18.0002 21.3296 17.5525 21.7773 17.0002 21.7773C16.4479 21.7773 16.0002 21.3296 16.0002 20.7773V19.7773ZM23.0002 18.7773C23.5525 18.7773 24.0002 19.2251 24.0002 19.7773V20.7773C24.0002 21.3296 23.5525 21.7773 23.0002 21.7773C22.4479 21.7773 22.0002 21.3296 22.0002 20.7773V19.7773C22.0002 19.2251 22.4479 18.7773 23.0002 18.7773ZM18.0002 22.7773H22.0002C22.0002 23.6058 21.3286 24.2773 20.5002 24.2773H19.5002C18.6718 24.2773 18.0002 23.6058 18.0002 22.7773Z" fill="#232A31"/>
</svg>
