<svg width="40" height="40" viewBox="0 0 40 40" fill="none" xmlns="http://www.w3.org/2000/svg">
<rect width="40" height="40" rx="8" fill="#F0F3F5"/>
<path d="M21.0125 12.125H19.1V14.375H14.375C13.1324 14.375 12.125 15.3824 12.125 16.625V25.625C12.125 26.8676 13.1324 27.875 14.375 27.875H25.625C26.8676 27.875 27.875 26.8676 27.875 25.625V16.625C27.875 15.3824 26.8676 14.375 25.625 14.375H21.0125V12.125ZM15.5002 19.4375C15.5002 18.8162 16.0039 18.3125 16.6252 18.3125C17.2465 18.3125 17.7502 18.8162 17.7502 19.4375V20.5625C17.7502 21.1838 17.2465 21.6875 16.6252 21.6875C16.0039 21.6875 15.5002 21.1838 15.5002 20.5625V19.4375ZM23.3752 18.3125C23.9965 18.3125 24.5002 18.8162 24.5002 19.4375V20.5625C24.5002 21.1838 23.9965 21.6875 23.3752 21.6875C22.7539 21.6875 22.2502 21.1838 22.2502 20.5625V19.4375C22.2502 18.8162 22.7539 18.3125 23.3752 18.3125ZM17.7502 22.8125H22.2502C22.2502 23.7445 21.4947 24.5 20.5627 24.5H19.4377C18.5057 24.5 17.7502 23.7445 17.7502 22.8125Z" fill="#232A31"/>
</svg>
