<svg width="40" height="40" viewBox="0 0 40 40" fill="none" xmlns="http://www.w3.org/2000/svg">
<rect width="40" height="40" rx="8" fill="#464E56"/>
<path d="M20.0102 18.46C19.3702 18.46 18.7202 18.7049 18.2302 19.1849L15.3902 21.9672C14.7702 22.5745 14.4302 23.4562 14.5802 24.4065C14.7702 25.5919 15.7602 26.5715 16.9702 26.7479C17.1202 26.7675 17.2802 26.7772 17.4202 26.7772C18.2202 26.7772 18.9302 26.4638 19.4602 25.9543L20.0202 25.4057L20.5702 25.9445C21.0902 26.454 21.8102 26.7675 22.6102 26.7675C22.7602 26.7675 22.9102 26.7577 23.0602 26.7381C24.2702 26.5519 25.2702 25.5821 25.4502 24.3967C25.6002 23.4366 25.2602 22.5549 24.6302 21.9574L21.7902 19.1751C21.3002 18.6951 20.6602 18.4502 20.0102 18.4502V18.46Z" fill="#F0F3F5"/>
<path d="M22.2105 16.374C21.8505 16.374 21.5605 16.0311 21.5605 15.6098C21.5605 15.1886 21.8505 14.8457 22.2105 14.8457C22.5705 14.8457 22.8605 15.1886 22.8605 15.6098C22.8605 16.0311 22.5705 16.374 22.2105 16.374Z" fill="#F0F3F5"/>
<path d="M22.2109 13.7773C21.2409 13.7773 20.4609 14.6003 20.4609 15.6191C20.4609 16.6379 21.2409 17.4608 22.2109 17.4608C23.1809 17.4608 23.9609 16.6379 23.9609 15.6191C23.9609 14.6003 23.1809 13.7773 22.2109 13.7773Z" fill="#F0F3F5"/>
<path d="M25.2496 19.8613C25.6086 19.8613 25.8996 19.5192 25.8996 19.0971C25.8996 18.6751 25.6086 18.333 25.2496 18.333C24.8906 18.333 24.5996 18.6751 24.5996 19.0971C24.5996 19.5192 24.8906 19.8613 25.2496 19.8613Z" fill="#F0F3F5"/>
<path d="M25.25 17.2549C24.28 17.2549 23.5 18.0778 23.5 19.0966C23.5 20.1155 24.28 20.9384 25.25 20.9384C26.22 20.9384 27 20.1155 27 19.0966C27 18.0778 26.22 17.2549 25.25 17.2549Z" fill="#F0F3F5"/>
<path d="M14.7496 19.8613C15.1086 19.8613 15.3996 19.5192 15.3996 19.0971C15.3996 18.6751 15.1086 18.333 14.7496 18.333C14.3906 18.333 14.0996 18.6751 14.0996 19.0971C14.0996 19.5192 14.3906 19.8613 14.7496 19.8613Z" fill="#F0F3F5"/>
<path d="M14.75 17.2549C13.78 17.2549 13 18.0778 13 19.0966C13 20.1155 13.78 20.9384 14.75 20.9384C15.72 20.9384 16.5 20.1155 16.5 19.0966C16.5 18.0778 15.72 17.2549 14.75 17.2549Z" fill="#F0F3F5"/>
<path d="M17.7887 16.374C18.1477 16.374 18.4387 16.0318 18.4387 15.6098C18.4387 15.1878 18.1477 14.8457 17.7887 14.8457C17.4297 14.8457 17.1387 15.1878 17.1387 15.6098C17.1387 16.0318 17.4297 16.374 17.7887 16.374Z" fill="#F0F3F5"/>
<path d="M17.7891 13.7773C16.8191 13.7773 16.0391 14.6003 16.0391 15.6191C16.0391 16.6379 16.8191 17.4608 17.7891 17.4608C18.7591 17.4608 19.5391 16.6379 19.5391 15.6191C19.5391 14.6003 18.7591 13.7773 17.7891 13.7773Z" fill="#F0F3F5"/>
</svg>
