<svg width="40" height="40" viewBox="0 0 40 40" fill="none" xmlns="http://www.w3.org/2000/svg">
<rect width="40" height="40" rx="8" fill="#464E56"/>
<path d="M20.0117 17.9554C19.2917 17.9554 18.5604 18.2309 18.0092 18.7709L14.8142 21.9009C14.1167 22.5842 13.7342 23.5761 13.9029 24.6452C14.1167 25.9787 15.2304 27.0808 16.5917 27.2792C16.7604 27.3013 16.9404 27.3123 17.0979 27.3123C17.9979 27.3123 18.7967 26.9596 19.3929 26.3865L20.0229 25.7693L20.6417 26.3755C21.2267 26.9486 22.0367 27.3012 22.9367 27.3012C23.1054 27.3012 23.2742 27.2902 23.4429 27.2682C24.8042 27.0588 25.9292 25.9677 26.1317 24.6341C26.3004 23.5541 25.9179 22.5622 25.2092 21.8899L22.0142 18.7599C21.4629 18.2199 20.7429 17.9443 20.0117 17.9443V17.9554Z" fill="#F0F3F5"/>
<path d="M22.4852 15.6089C22.0802 15.6089 21.7539 15.2232 21.7539 14.7493C21.7539 14.2754 22.0802 13.8896 22.4852 13.8896C22.8902 13.8896 23.2164 14.2754 23.2164 14.7493C23.2164 15.2232 22.8902 15.6089 22.4852 15.6089Z" fill="#F0F3F5"/>
<path d="M22.4863 12.6875C21.3951 12.6875 20.5176 13.6133 20.5176 14.7595C20.5176 15.9057 21.3951 16.8314 22.4863 16.8314C23.5776 16.8314 24.4551 15.9057 24.4551 14.7595C24.4551 13.6133 23.5776 12.6875 22.4863 12.6875Z" fill="#F0F3F5"/>
<path d="M25.9051 19.5318C26.3089 19.5318 26.6363 19.1469 26.6363 18.6721C26.6363 18.1974 26.3089 17.8125 25.9051 17.8125C25.5012 17.8125 25.1738 18.1974 25.1738 18.6721C25.1738 19.1469 25.5012 19.5318 25.9051 19.5318Z" fill="#F0F3F5"/>
<path d="M25.9062 16.5996C24.815 16.5996 23.9375 17.5254 23.9375 18.6716C23.9375 19.8178 24.815 20.7435 25.9062 20.7435C26.9975 20.7435 27.875 19.8178 27.875 18.6716C27.875 17.5254 26.9975 16.5996 25.9062 16.5996Z" fill="#F0F3F5"/>
<path d="M14.0926 19.5318C14.4964 19.5318 14.8238 19.1469 14.8238 18.6721C14.8238 18.1974 14.4964 17.8125 14.0926 17.8125C13.6887 17.8125 13.3613 18.1974 13.3613 18.6721C13.3613 19.1469 13.6887 19.5318 14.0926 19.5318Z" fill="#F0F3F5"/>
<path d="M14.0938 16.5996C13.0025 16.5996 12.125 17.5254 12.125 18.6716C12.125 19.8178 13.0025 20.7435 14.0938 20.7435C15.185 20.7435 16.0625 19.8178 16.0625 18.6716C16.0625 17.5254 15.185 16.5996 14.0938 16.5996Z" fill="#F0F3F5"/>
<path d="M17.5125 15.6089C17.9164 15.6089 18.2438 15.2241 18.2438 14.7493C18.2438 14.2745 17.9164 13.8896 17.5125 13.8896C17.1086 13.8896 16.7812 14.2745 16.7812 14.7493C16.7812 15.2241 17.1086 15.6089 17.5125 15.6089Z" fill="#F0F3F5"/>
<path d="M17.5137 12.6875C16.4224 12.6875 15.5449 13.6133 15.5449 14.7595C15.5449 15.9057 16.4224 16.8314 17.5137 16.8314C18.6049 16.8314 19.4824 15.9057 19.4824 14.7595C19.4824 13.6133 18.6049 12.6875 17.5137 12.6875Z" fill="#F0F3F5"/>
</svg>
