<svg width="40" height="40" viewBox="0 0 40 40" fill="none" xmlns="http://www.w3.org/2000/svg">
<rect width="40" height="40" rx="8" fill="#F0F3F5"/>
<path d="M14.2709 13.5523C14.3989 13.5523 14.5269 13.6114 14.6155 13.7098L22.9728 22.8645C23.337 23.2583 23.5339 23.7702 23.5339 24.3116V26.1228C23.5339 26.3 23.3863 26.4477 23.2091 26.4477H13.7984V14.0248C13.7984 13.7689 14.0052 13.5523 14.2709 13.5523ZM14.2709 12.125C13.2177 12.125 12.3711 12.9716 12.3711 14.0248V27.875H23.2091C24.1836 27.875 24.9711 27.0875 24.9711 26.113V24.3017C24.9711 23.4059 24.6364 22.5495 24.0359 21.89L15.6786 12.7452C15.3144 12.3514 14.8025 12.125 14.2709 12.125Z" fill="#232A31"/>
<path d="M12.125 27.875V15.0781H15.3636L23.3961 24.3017V26.1228H27.875V27.875H12.125Z" fill="#F0F3F5"/>
<path d="M24.4023 27.875C25.3537 27.875 26.125 27.1037 26.125 26.1523C26.125 25.2009 25.3537 24.4297 24.4023 24.4297C23.4509 24.4297 22.6797 25.2009 22.6797 26.1523C22.6797 27.1037 23.4509 27.875 24.4023 27.875Z" fill="#232A31"/>
<path d="M23.6618 22.9531H18.0214C16.8401 22.9531 15.9246 21.9195 16.0723 20.7383L16.781 15.0781" fill="#232A31"/>
<path d="M23.6618 22.9531H18.0214C16.8401 22.9531 15.9246 21.9195 16.0723 20.7383L16.781 15.0781" stroke="#232A31" stroke-width="1.63125"/>
<path d="M14.873 26.5067L16.7729 22.9531" stroke="#232A31" stroke-width="1.63125"/>
<path d="M17.1875 15.3336C17.2794 14.0941 18.3598 13.1644 19.601 13.2563C20.8423 13.3481 21.7732 14.4269 21.6812 15.6664C21.5893 16.9059 20.509 17.8356 19.2677 17.7437" stroke="#232A31" stroke-width="1.63125"/>
<path d="M20 20.9423L22.399 20.1404C23.3377 19.832 24.4106 20.0417 25.0811 20.6709L26.75 22.25" stroke="#232A31" stroke-width="1.63125"/>
<path d="M15.2852 27.875C16.2366 27.875 17.0078 27.1037 17.0078 26.1523C17.0078 25.2009 16.2366 24.4297 15.2852 24.4297C14.3338 24.4297 13.5625 25.2009 13.5625 26.1523C13.5625 27.1037 14.3338 27.875 15.2852 27.875Z" fill="#232A31"/>
</svg>
