<svg width="40" height="40" viewBox="0 0 40 40" fill="none" xmlns="http://www.w3.org/2000/svg">
<rect width="40" height="40" rx="8" fill="#464E56"/>
<path d="M14.9075 14.5461C15.0213 14.5461 15.135 14.5986 15.2138 14.6861L22.6425 22.8236C22.9663 23.1736 23.1413 23.6286 23.1413 24.1098V25.7198C23.1413 25.8773 23.01 26.0086 22.8525 26.0086H14.4875V14.9661C14.4875 14.7386 14.6713 14.5461 14.9075 14.5461ZM14.9075 13.2773C13.9713 13.2773 13.2188 14.0298 13.2188 14.9661V27.2774H22.8525C23.7188 27.2774 24.4188 26.5773 24.4188 25.7111V24.1011C24.4188 23.3048 24.1213 22.5436 23.5875 21.9573L16.1588 13.8286C15.835 13.4786 15.38 13.2773 14.9075 13.2773Z" fill="#F0F3F5"/>
<path d="M13 27.2773V15.9023H15.8788L23.0188 24.1011V25.7198H27V27.2773H13Z" fill="#464E56"/>
<path d="M23.9121 27.2773C24.7578 27.2773 25.4434 26.5918 25.4434 25.7461C25.4434 24.9004 24.7578 24.2148 23.9121 24.2148C23.0664 24.2148 22.3809 24.9004 22.3809 25.7461C22.3809 26.5918 23.0664 27.2773 23.9121 27.2773Z" fill="#F0F3F5"/>
<path d="M23.2543 22.9023H18.2406C17.1906 22.9023 16.3768 21.9836 16.5081 20.9336L17.1381 15.9023" fill="#F0F3F5"/>
<path d="M23.2543 22.9023H18.2406C17.1906 22.9023 16.3768 21.9836 16.5081 20.9336L17.1381 15.9023" stroke="#F0F3F5" stroke-width="1.45"/>
<path d="M15.4414 26.0611L17.1302 22.9023" stroke="#F0F3F5" stroke-width="1.45"/>
<path d="M17.5 16.1294C17.5817 15.0276 18.542 14.2013 19.6453 14.2829C20.7487 14.3645 21.5762 15.3235 21.4944 16.4253C21.4127 17.5271 20.4524 18.3534 19.3491 18.2718" stroke="#F0F3F5" stroke-width="1.45"/>
<path d="M20 21.1149L22.1325 20.4021C22.9669 20.128 23.9205 20.3144 24.5166 20.8737L26 22.2773" stroke="#F0F3F5" stroke-width="1.45"/>
<path d="M15.8086 27.2773C16.6543 27.2773 17.3398 26.5918 17.3398 25.7461C17.3398 24.9004 16.6543 24.2148 15.8086 24.2148C14.9629 24.2148 14.2773 24.9004 14.2773 25.7461C14.2773 26.5918 14.9629 27.2773 15.8086 27.2773Z" fill="#F0F3F5"/>
</svg>
