<svg width="40" height="40" viewBox="0 0 40 40" fill="none" xmlns="http://www.w3.org/2000/svg">
<rect width="40" height="40" rx="8" fill="#464E56"/>
<path d="M26.6714 23.2416V18.3138C26.6714 17.405 25.5208 17.0112 24.964 17.7294C24.7833 17.9624 24.5051 18.0988 24.2103 18.0988H23.8903C23.4813 18.0988 23.0876 17.9427 22.7896 17.6625L22.0009 16.9208C21.7078 16.6451 21.3205 16.4916 20.9181 16.4916C20.4165 16.4916 19.9507 16.7405 19.5668 17.0633C18.3241 18.1084 15.9758 19.0623 14.2265 19.6471C13.5057 19.8881 13 20.5522 13 21.3121C13 21.7269 13.1519 22.1273 13.427 22.4378L13.5211 22.544C13.9142 22.9877 14.4786 23.2416 15.0714 23.2416H26.6714Z" fill="#F0F3F5" stroke="#F0F3F5" stroke-width="1.7"/>
<path d="M15 25.0273V23.0273" stroke="#F0F3F5" stroke-width="1.7"/>
<path d="M18 25.0273V23.0273" stroke="#F0F3F5" stroke-width="1.7"/>
<path d="M23 25.0273V23.0273" stroke="#F0F3F5" stroke-width="1.7"/>
<path d="M26 25.0273V23.0273" stroke="#F0F3F5" stroke-width="1.7"/>
<path d="M15 19.0625L18.1071 23.2411" stroke="#464E56" stroke-width="1.7"/>
<path d="M17.6602 17.7773L21.6994 23.2416" stroke="#464E56" stroke-width="1.7"/>
<path d="M26.6714 23.2416V18.3138C26.6714 17.405 25.5208 17.0112 24.964 17.7294C24.7833 17.9624 24.5051 18.0988 24.2103 18.0988H23.8903C23.4813 18.0988 23.0876 17.9427 22.7896 17.6625L22.0009 16.9208C21.7078 16.6451 21.3205 16.4916 20.9181 16.4916C20.4165 16.4916 19.9507 16.7405 19.5668 17.0633C18.3241 18.1084 15.9758 19.0623 14.2265 19.6471C13.5057 19.8881 13 20.5522 13 21.3121C13 21.7269 13.1519 22.1273 13.427 22.4378L13.5211 22.544C13.9142 22.9877 14.4786 23.2416 15.0714 23.2416H26.6714Z" stroke="#F0F3F5" stroke-width="1.7"/>
</svg>
