<svg width="40" height="40" viewBox="0 0 40 40" fill="none" xmlns="http://www.w3.org/2000/svg">
<rect width="40" height="40" rx="8" fill="#464E56"/>
<path d="M27.5053 23.3348V17.791C27.5053 16.7686 26.2109 16.3256 25.5845 17.1336C25.3812 17.3957 25.0682 17.5491 24.7366 17.5491H24.3766C23.9164 17.5491 23.4736 17.3736 23.1383 17.0583L22.2511 16.2239C21.9213 15.9137 21.4856 15.7411 21.0329 15.7411C20.4686 15.7411 19.9445 16.021 19.5126 16.3842C18.1146 17.5599 15.4727 18.633 13.5048 19.291C12.694 19.562 12.125 20.3092 12.125 21.1641C12.125 21.6307 12.2959 22.0812 12.6054 22.4305L12.7112 22.55C13.1535 23.0491 13.7885 23.3348 14.4554 23.3348H27.5053Z" fill="#F0F3F5" stroke="#F0F3F5" stroke-width="1.9125"/>
<path d="M14.375 25.3438V23.0938" stroke="#F0F3F5" stroke-width="1.9125"/>
<path d="M17.75 25.3438V23.0938" stroke="#F0F3F5" stroke-width="1.9125"/>
<path d="M23.375 25.3438V23.0938" stroke="#F0F3F5" stroke-width="1.9125"/>
<path d="M26.75 25.3438V23.0938" stroke="#F0F3F5" stroke-width="1.9125"/>
<path d="M14.375 18.6338L17.8705 23.3347" stroke="#464E56" stroke-width="1.9125"/>
<path d="M17.3672 17.1875L21.9114 23.3348" stroke="#464E56" stroke-width="1.9125"/>
<path d="M27.5053 23.3348V17.791C27.5053 16.7686 26.2109 16.3256 25.5845 17.1336C25.3812 17.3957 25.0682 17.5491 24.7366 17.5491H24.3766C23.9164 17.5491 23.4736 17.3736 23.1383 17.0583L22.2511 16.2239C21.9213 15.9137 21.4856 15.7411 21.0329 15.7411C20.4686 15.7411 19.9445 16.021 19.5126 16.3842C18.1146 17.5599 15.4727 18.633 13.5048 19.291C12.694 19.562 12.125 20.3092 12.125 21.1641C12.125 21.6307 12.2959 22.0812 12.6054 22.4305L12.7112 22.55C13.1535 23.0491 13.7885 23.3348 14.4554 23.3348H27.5053Z" stroke="#F0F3F5" stroke-width="1.9125"/>
</svg>
