<svg width="40" height="40" viewBox="0 0 40 40" fill="none" xmlns="http://www.w3.org/2000/svg">
<rect width="40" height="40" rx="8" fill="#F0F3F5"/>
<path d="M19.7764 13.7241L19 15.2769L18.8944 15.4881C18.4835 16.3099 19.0811 17.2769 20 17.2769C20.9189 17.2769 21.5165 16.3099 21.1056 15.4881L21 15.2769L20.2236 13.7241C20.1315 13.5399 19.8685 13.5399 19.7764 13.7241ZM14.9946 25.6769L15.6018 22.9446C16.0828 23.2111 16.7386 23.0951 17.069 22.5665C17.499 21.8785 18.501 21.8785 18.931 22.5665L19 22.6769C19.4619 23.4159 20.5381 23.4159 21 22.6769L21.1049 22.5091C21.5183 21.8476 22.4817 21.8476 22.8951 22.5091C23.2306 23.0459 23.9084 23.1368 24.3732 22.832L25.0054 25.6769H14.9946ZM26.6444 25.6769L25.174 19.06C25.0723 18.6025 24.6665 18.2769 24.1978 18.2769H15.8022C15.3335 18.2769 14.9277 18.6025 14.826 19.06L13.3556 25.6769L13 27.2769H14.639H25.361H27L26.6444 25.6769Z" fill="#232A31"/>
</svg>
