<svg width="40" height="40" viewBox="0 0 40 40" fill="none" xmlns="http://www.w3.org/2000/svg">
<rect width="40" height="40" rx="8" fill="#464E56"/>
<path d="M19.7484 12.6281L18.875 14.375L18.7562 14.6126C18.2939 15.5371 18.9663 16.625 20 16.625C21.0337 16.625 21.7061 15.5371 21.2438 14.6126L21.125 14.375L20.2516 12.6281C20.1479 12.4208 19.8521 12.4208 19.7484 12.6281ZM14.3689 26.075L15.052 23.0011C15.5932 23.3009 16.331 23.1705 16.7026 22.5758C17.1864 21.8018 18.3136 21.8018 18.7974 22.5758L18.875 22.7C19.3946 23.5314 20.6054 23.5314 21.125 22.7L21.243 22.5112C21.7081 21.767 22.7919 21.767 23.257 22.5112C23.6344 23.1151 24.397 23.2174 24.9199 22.8745L25.6311 26.075H14.3689ZM27.475 26.075L25.8208 18.631C25.7064 18.1162 25.2498 17.75 24.7226 17.75H15.2774C14.7502 17.75 14.2936 18.1162 14.1792 18.631L12.525 26.075L12.125 27.875H13.9689H26.0311H27.875L27.475 26.075Z" fill="#F0F3F5"/>
</svg>
