<svg width="40" height="40" viewBox="0 0 40 40" fill="none" xmlns="http://www.w3.org/2000/svg">
<rect width="40" height="40" rx="8" fill="#F0F3F5"/>
<path d="M20 18.7773H27V26.2773H13V18.7773H20Z" fill="#232A31"/>
<path d="M13.9028 18.7899L14.6315 15.7828C14.8598 14.8406 15.7028 14.1773 16.6719 14.1773H23.3292C24.2979 14.1773 25.1401 14.8402 25.3685 15.7828L26.0972 18.7899C26.0991 18.7976 26.1 18.8055 26.1 18.8134V25.2773C26.1 25.3326 26.0552 25.3773 26 25.3773H14C13.9448 25.3773 13.9 25.3326 13.9 25.2773V18.8134C13.9 18.8055 13.9009 18.7976 13.9028 18.7899Z" stroke="#232A31" stroke-width="1.8"/>
<path d="M13.0004 26.7773V27.6773H14.8004V26.7773H13.0004ZM13.0004 23.2773V26.7773H14.8004V23.2773H13.0004Z" fill="#232A31"/>
<path d="M25.1996 26.7773V27.6773H26.9996V26.7773H25.1996ZM25.1996 23.2773V26.7773H26.9996V23.2773H25.1996Z" fill="#232A31"/>
<rect x="16" y="21.5273" width="2" height="2" rx="1" fill="#F0F3F5"/>
<rect x="22" y="21.5273" width="2" height="2" rx="1" fill="#F0F3F5"/>
</svg>
