<svg width="40" height="40" viewBox="0 0 40 40" fill="none" xmlns="http://www.w3.org/2000/svg">
<rect width="40" height="40" rx="8" fill="#464E56"/>
<path d="M20 18.3125H27.875V26.75H12.125V18.3125H20Z" fill="#F0F3F5"/>
<path d="M13.1407 18.3266L13.9604 14.9436C14.2172 13.8836 15.1656 13.1375 16.2558 13.1375H23.7454C24.8352 13.1375 25.7827 13.8832 26.0396 14.9436L26.8593 18.3266C26.8614 18.3353 26.8625 18.3442 26.8625 18.3531V25.625C26.8625 25.6871 26.8121 25.7375 26.75 25.7375H13.25C13.1879 25.7375 13.1375 25.6871 13.1375 25.625V18.3531C13.1375 18.3442 13.1386 18.3353 13.1407 18.3266Z" stroke="#F0F3F5" stroke-width="2.025"/>
<path d="M12.1262 27.3125V28.325H14.1512V27.3125H12.1262ZM12.1262 23.375V27.3125H14.1512V23.375H12.1262Z" fill="#F0F3F5"/>
<path d="M25.8488 27.3125V28.325H27.8738V27.3125H25.8488ZM25.8488 23.375V27.3125H27.8738V23.375H25.8488Z" fill="#F0F3F5"/>
<rect x="15.5" y="21.4062" width="2.25" height="2.25" rx="1.125" fill="#464E56"/>
<rect x="22.25" y="21.4062" width="2.25" height="2.25" rx="1.125" fill="#464E56"/>
</svg>
