<svg width="40" height="40" viewBox="0 0 40 40" fill="none" xmlns="http://www.w3.org/2000/svg">
<rect width="40" height="40" rx="8" fill="#464E56"/>
<path d="M15.8001 13.2773H24.2001V15.3773H24.45H25.35H27V17.0273V17.585C27 18.9616 26.0631 20.1615 24.7276 20.4954L24.45 20.5648L23.8719 20.7093C23.4897 21.6182 22.7921 22.3814 21.8784 22.8382C21.5411 23.0069 21.1867 23.1274 20.825 23.1998V25.6183L22.7999 26.6736V27.2774H17.1999V26.6736L19.175 25.6182V23.1998C18.8134 23.1274 18.4591 23.0068 18.1218 22.8382C17.2081 22.3814 16.5106 21.6182 16.1283 20.7094L15.55 20.5648L15.2724 20.4954C13.9369 20.1615 13 18.9616 13 17.585V17.0273V15.3773H14.65H15.55H15.8001V13.2773ZM15.55 17.0273H14.65V17.585C14.65 18.1614 15.0151 18.669 15.55 18.8578V17.0273ZM25.35 17.0273H24.45V18.8578C24.9849 18.669 25.35 18.1614 25.35 17.585V17.0273Z" fill="#F0F3F5"/>
</svg>
