<svg width="40" height="40" viewBox="0 0 40 40" fill="none" xmlns="http://www.w3.org/2000/svg">
<rect width="40" height="40" rx="8" fill="#F0F3F5"/>
<path d="M15.2751 12.125H24.7251V14.4874H25.0062H26.0188H27.875V16.3437V16.9711C27.875 18.5197 26.821 19.8697 25.3186 20.2453L25.0062 20.3234L24.3559 20.486C23.9259 21.5085 23.1411 22.367 22.1132 22.881C21.7337 23.0707 21.335 23.2063 20.9281 23.2878V26.0086L23.1499 27.1958V27.8751H16.8499V27.1958L19.0719 26.0085V23.2878C18.6651 23.2063 18.2665 23.0707 17.887 22.881C16.8592 22.367 16.0744 21.5085 15.6443 20.486L14.9938 20.3234L14.6814 20.2453C13.179 19.8697 12.125 18.5197 12.125 16.9711V16.3437V14.4874H13.9812H14.9938H15.2751V12.125ZM14.9938 16.3437H13.9812V16.9711C13.9812 17.6196 14.3919 18.1906 14.9938 18.403V16.3437ZM26.0188 16.3437H25.0062V18.403C25.6081 18.1906 26.0188 17.6196 26.0188 16.9711V16.3437Z" fill="#232A31"/>
</svg>
