<svg width="40" height="40" viewBox="0 0 40 40" fill="none" xmlns="http://www.w3.org/2000/svg">
<rect width="40" height="40" rx="8" fill="#F0F3F5"/>
<path d="M20.0012 26.8627C23.7912 26.8627 26.8637 23.7902 26.8637 20.0002C26.8637 16.2101 23.7912 13.1377 20.0012 13.1377C16.2111 13.1377 13.1387 16.2101 13.1387 20.0002C13.1387 23.7902 16.2111 26.8627 20.0012 26.8627Z" fill="#F0F3F5"/>
<path d="M20 14.15C23.2287 14.15 25.85 16.7713 25.85 20C25.85 23.2287 23.2287 25.85 20 25.85C16.7713 25.85 14.15 23.2287 14.15 20C14.15 16.7713 16.7713 14.15 20 14.15ZM20 12.125C15.6463 12.125 12.125 15.6463 12.125 20C12.125 24.3537 15.6463 27.875 20 27.875C24.3537 27.875 27.875 24.3537 27.875 20C27.875 15.6463 24.3537 12.125 20 12.125Z" fill="#232A31"/>
<path d="M20 12.125V20" stroke="#232A31" stroke-width="2.025"/>
<path d="M26.8175 23.9375L20 20" stroke="#232A31" stroke-width="2.025"/>
<path d="M13.1816 23.9375L19.9991 20" stroke="#232A31" stroke-width="2.025"/>
<path d="M16.5918 13.8574V21.9687" stroke="#232A31" stroke-width="2.025"/>
<path d="M27.3238 20.146L20 15.916" stroke="#232A31" stroke-width="2.025"/>
<path d="M16.2324 26.1199L23.7699 21.7549" stroke="#232A31" stroke-width="2.025"/>
</svg>
