<svg width="40" height="40" viewBox="0 0 40 40" fill="none" xmlns="http://www.w3.org/2000/svg">
<rect width="40" height="40" rx="8" fill="#F0F3F5"/>
<path d="M20.0004 26.3777C23.3693 26.3777 26.1004 23.6467 26.1004 20.2777C26.1004 16.9088 23.3693 14.1777 20.0004 14.1777C16.6315 14.1777 13.9004 16.9088 13.9004 20.2777C13.9004 23.6467 16.6315 26.3777 20.0004 26.3777Z" fill="#F0F3F5"/>
<path d="M20 15.0773C22.87 15.0773 25.2 17.4073 25.2 20.2773C25.2 23.1473 22.87 25.4773 20 25.4773C17.13 25.4773 14.8 23.1473 14.8 20.2773C14.8 17.4073 17.13 15.0773 20 15.0773ZM20 13.2773C16.13 13.2773 13 16.4073 13 20.2773C13 24.1473 16.13 27.2773 20 27.2773C23.87 27.2773 27 24.1473 27 20.2773C27 16.4073 23.87 13.2773 20 13.2773Z" fill="#232A31"/>
<path d="M20 13.2773V20.2773" stroke="#232A31" stroke-width="1.8"/>
<path d="M26.06 23.7773L20 20.2773" stroke="#232A31" stroke-width="1.8"/>
<path d="M13.9395 23.7773L19.9995 20.2773" stroke="#232A31" stroke-width="1.8"/>
<path d="M16.9707 14.8174V22.0274" stroke="#232A31" stroke-width="1.8"/>
<path d="M26.51 20.4075L20 16.6475" stroke="#232A31" stroke-width="1.8"/>
<path d="M16.6504 25.7169L23.3504 21.8369" stroke="#232A31" stroke-width="1.8"/>
</svg>
