<svg width="40" height="40" viewBox="0 0 40 40" fill="none" xmlns="http://www.w3.org/2000/svg">
<rect width="40" height="40" rx="8" fill="#464E56"/>
<path d="M20 26.5276C19.19 26.5276 18.39 26.3676 17.64 26.0676C16.72 25.6976 15.89 25.0976 15.24 24.3276C14.28 23.1976 13.75 21.7576 13.75 20.2776C13.75 20.1276 13.75 19.9776 13.77 19.8276C13.84 18.8076 14.15 17.8476 14.7 16.9776L14.8 16.8076C15.66 15.5076 16.95 14.5876 18.46 14.2076H18.52C19.01 14.0776 19.51 14.0176 20 14.0176C20.49 14.0176 20.99 14.0776 21.49 14.1976C23.08 14.5876 24.44 15.5676 25.32 16.9776C25.86 17.8376 26.17 18.7976 26.24 19.8276C26.25 19.9776 26.26 20.1276 26.26 20.2776C26.26 21.7576 25.73 23.1976 24.77 24.3276C24.12 25.0876 23.29 25.6876 22.38 26.0576C21.63 26.3676 20.84 26.5276 20.01 26.5276H20Z" fill="#464E56"/>
<path d="M19.9998 14.7776C20.4398 14.7776 20.8798 14.8276 21.3098 14.9276C22.7098 15.2676 23.9098 16.1376 24.6798 17.3776C25.1498 18.1376 25.4198 18.9776 25.4898 19.8876C25.4898 20.0176 25.4998 20.1476 25.4998 20.2776C25.4998 21.5776 25.0298 22.8476 24.1898 23.8376C23.6198 24.5076 22.8898 25.0376 22.0798 25.3676C21.4298 25.6376 20.7298 25.7776 19.9998 25.7776C19.2698 25.7776 18.5898 25.6376 17.9198 25.3676C17.1098 25.0376 16.3798 24.5076 15.8098 23.8376C14.9598 22.8376 14.4998 21.5776 14.4998 20.2676C14.4998 20.1376 14.4998 20.0076 14.5198 19.8676C14.5798 18.9776 14.8598 18.1376 15.3298 17.3676L15.4098 17.2376C16.1598 16.1076 17.2698 15.2976 18.5798 14.9576L18.6998 14.9276C19.1298 14.8276 19.5698 14.7676 19.9998 14.7676M19.9998 13.2676C19.4298 13.2676 18.8698 13.3376 18.3498 13.4676C16.5398 13.9076 15.0198 15.0376 14.0698 16.5776C13.4798 17.5276 13.1198 18.6076 13.0298 19.7676C13.0198 19.9376 13.0098 20.1076 13.0098 20.2676C13.0098 21.9876 13.6398 23.5876 14.6798 24.8076C15.4098 25.6576 16.3198 26.3276 17.3698 26.7576C18.1798 27.0876 19.0798 27.2776 20.0098 27.2776C20.9398 27.2776 21.8498 27.0976 22.6598 26.7576C23.6998 26.3276 24.6198 25.6576 25.3398 24.8176C26.3798 23.5976 27.0098 22.0076 27.0098 20.2776C27.0098 20.1076 27.0098 19.9376 26.9898 19.7776C26.9098 18.6176 26.5398 17.5276 25.9598 16.5876C25.0098 15.0576 23.4798 13.9176 21.6698 13.4776C21.1398 13.3476 20.5798 13.2776 20.0098 13.2776L19.9998 13.2676Z" fill="#F0F3F5"/>
<path d="M18.4902 22.3477L16.8202 24.6577L15.2302 24.3177C14.3002 23.2277 13.7402 21.8077 13.7402 20.2677C13.7402 20.1177 13.7402 19.9677 13.7602 19.8177L14.8602 18.5977L17.5602 19.4677L18.4902 22.3377V22.3477Z" fill="#464E56" stroke="#F0F3F5" stroke-width="1.5" stroke-linejoin="round"/>
<path d="M23.1801 24.6672L22.3701 26.0672C21.6401 26.3672 20.8401 26.5372 20.0001 26.5372C19.1601 26.5372 18.3701 26.3772 17.6401 26.0772L16.8301 24.6772L18.5001 22.3672H21.5201L23.1901 24.6772L23.1801 24.6672Z" fill="#464E56" stroke="#F0F3F5" stroke-width="1.5" stroke-linejoin="round"/>
<path d="M26.25 20.2772C26.25 21.8172 25.69 23.2372 24.76 24.3272L23.17 24.6672L21.5 22.3572L22.43 19.4872L25.12 18.6172L26.22 19.8372C26.23 19.9872 26.24 20.1372 26.24 20.2872L26.25 20.2772Z" fill="#464E56" stroke="#F0F3F5" stroke-width="1.5" stroke-linejoin="round"/>
<path d="M25.31 16.9773L25.13 18.6073L22.44 19.4773L20 17.7073V14.8573L21.48 14.1973C23.09 14.5873 24.46 15.6073 25.31 16.9773Z" fill="#464E56" stroke="#F0F3F5" stroke-width="1.5" stroke-linejoin="round"/>
<path d="M19.9995 14.8573V17.7073L17.5595 19.4773L14.8595 18.6073L14.6895 16.9773C15.5395 15.5973 16.8995 14.5873 18.5195 14.1973L19.9995 14.8573Z" fill="#464E56" stroke="#F0F3F5" stroke-width="1.5" stroke-linejoin="round"/>
<path d="M18.2807 22.7566L17.2207 19.4966L20.0007 17.4766L22.7807 19.4966L21.7207 22.7566H18.2807Z" fill="#464E56"/>
<path d="M19.9998 18.3969L21.8998 19.7769L21.1798 22.0069H18.8298L18.1098 19.7769L19.9998 18.3969ZM19.9998 16.5469L16.3398 19.2069L17.7398 23.5069H22.2698L23.6698 19.2069L19.9998 16.5469Z" fill="#F0F3F5"/>
</svg>
