<svg width="40" height="40" viewBox="0 0 40 40" fill="none" xmlns="http://www.w3.org/2000/svg">
<rect width="40" height="40" rx="8" fill="#464E56"/>
<path d="M19.998 27.0308C19.0868 27.0308 18.1868 26.8508 17.343 26.5133C16.308 26.097 15.3743 25.422 14.643 24.5558C13.563 23.2845 12.9668 21.6645 12.9668 19.9995C12.9668 19.8308 12.9668 19.662 12.9893 19.4933C13.068 18.3458 13.4168 17.2658 14.0355 16.287L14.148 16.0958C15.1155 14.6333 16.5668 13.5983 18.2655 13.1708H18.333C18.8843 13.0245 19.4468 12.957 19.998 12.957C20.5493 12.957 21.1118 13.0245 21.6743 13.1595C23.463 13.5983 24.993 14.7008 25.983 16.287C26.5905 17.2545 26.9393 18.3345 27.018 19.4933C27.0293 19.662 27.0405 19.8308 27.0405 19.9995C27.0405 21.6645 26.4443 23.2845 25.3643 24.5558C24.633 25.4108 23.6993 26.0858 22.6755 26.502C21.8318 26.8508 20.943 27.0308 20.0093 27.0308H19.998Z" fill="#464E56"/>
<path d="M19.9985 13.812C20.4935 13.812 20.9885 13.8683 21.4723 13.9808C23.0473 14.3633 24.3973 15.342 25.2635 16.737C25.7923 17.592 26.096 18.537 26.1748 19.5608C26.1748 19.707 26.186 19.8533 26.186 19.9995C26.186 21.462 25.6573 22.8908 24.7123 24.0045C24.071 24.7583 23.2498 25.3545 22.3385 25.7258C21.6073 26.0295 20.8198 26.187 19.9985 26.187C19.1773 26.187 18.4123 26.0295 17.6585 25.7258C16.7473 25.3545 15.926 24.7583 15.2848 24.0045C14.3285 22.8795 13.811 21.462 13.811 19.9883C13.811 19.842 13.811 19.6958 13.8335 19.5383C13.901 18.537 14.216 17.592 14.7448 16.7258L14.8348 16.5795C15.6785 15.3083 16.9273 14.397 18.401 14.0145L18.536 13.9808C19.0198 13.8683 19.5148 13.8008 19.9985 13.8008M19.9985 12.1133C19.3573 12.1133 18.7273 12.192 18.1423 12.3383C16.106 12.8333 14.396 14.1045 13.3273 15.837C12.6635 16.9058 12.2585 18.1208 12.1573 19.4258C12.146 19.617 12.1348 19.8083 12.1348 19.9883C12.1348 21.9233 12.8435 23.7233 14.0135 25.0958C14.8348 26.052 15.8585 26.8058 17.0398 27.2895C17.951 27.6608 18.9635 27.8745 20.0098 27.8745C21.056 27.8745 22.0798 27.672 22.991 27.2895C24.161 26.8058 25.196 26.052 26.006 25.107C27.176 23.7345 27.8848 21.9458 27.8848 19.9995C27.8848 19.8083 27.8848 19.617 27.8623 19.437C27.7723 18.132 27.356 16.9058 26.7035 15.8483C25.6348 14.127 23.9135 12.8445 21.8773 12.3495C21.281 12.2033 20.651 12.1245 20.0098 12.1245L19.9985 12.1133Z" fill="#F0F3F5"/>
<path d="M18.3027 22.3291L16.424 24.9279L14.6352 24.5454C13.589 23.3191 12.959 21.7216 12.959 19.9891C12.959 19.8204 12.959 19.6516 12.9815 19.4829L14.219 18.1104L17.2565 19.0891L18.3027 22.3179V22.3291Z" fill="#464E56" stroke="#F0F3F5" stroke-width="1.6875" stroke-linejoin="round"/>
<path d="M23.5793 24.9391L22.668 26.5141C21.8468 26.8516 20.9468 27.0428 20.0018 27.0428C19.0568 27.0428 18.168 26.8628 17.3468 26.5253L16.4355 24.9503L18.3143 22.3516H21.7118L23.5905 24.9503L23.5793 24.9391Z" fill="#464E56" stroke="#F0F3F5" stroke-width="1.6875" stroke-linejoin="round"/>
<path d="M27.0332 20.0003C27.0332 21.7328 26.4032 23.3303 25.357 24.5566L23.5682 24.9391L21.6895 22.3403L22.7357 19.1116L25.762 18.1328L26.9995 19.5053C27.0107 19.6741 27.022 19.8428 27.022 20.0116L27.0332 20.0003Z" fill="#464E56" stroke="#F0F3F5" stroke-width="1.6875" stroke-linejoin="round"/>
<path d="M25.9757 16.2877L25.7732 18.1214L22.747 19.1002L20.002 17.1089V13.9027L21.667 13.1602C23.4782 13.5989 25.0195 14.7464 25.9757 16.2877Z" fill="#464E56" stroke="#F0F3F5" stroke-width="1.6875" stroke-linejoin="round"/>
<path d="M20.0011 13.9027V17.1089L17.2561 19.1002L14.2186 18.1214L14.0273 16.2877C14.9836 14.7352 16.5136 13.5989 18.3361 13.1602L20.0011 13.9027Z" fill="#464E56" stroke="#F0F3F5" stroke-width="1.6875" stroke-linejoin="round"/>
<path d="M18.0655 22.7896L16.873 19.1221L20.0005 16.8496L23.128 19.1221L21.9355 22.7896H18.0655Z" fill="#464E56"/>
<path d="M20.0003 17.885L22.1378 19.4375L21.3278 21.9462H18.6841L17.8741 19.4375L20.0003 17.885ZM20.0003 15.8037L15.8828 18.7962L17.4578 23.6337H22.5541L24.1291 18.7962L20.0003 15.8037Z" fill="#F0F3F5"/>
</svg>
