<svg width="40" height="40" viewBox="0 0 40 40" fill="none" xmlns="http://www.w3.org/2000/svg">
<rect width="40" height="40" rx="8" fill="#F0F3F5"/>
<path d="M17.3915 26.9744C15.6815 26.9744 14.2302 26.6369 13.5552 26.4457C13.1277 24.9044 11.9465 19.4032 15.6702 15.6794C17.4252 13.9244 19.7652 13.0244 22.6002 13.0244C24.3102 13.0244 25.7615 13.3619 26.4365 13.5532C26.864 15.0944 28.0452 20.5957 24.3215 24.3194C22.5665 26.0744 20.2265 26.9744 17.3915 26.9744Z" fill="black"/>
<path d="M22.3294 17.6714L17.6719 22.3289" stroke="#F0F3F5" stroke-width="1.8"/>
<path d="M26.9293 18.7511L21.248 13.0698" stroke="#F0F3F5" stroke-width="1.8"/>
<path d="M18.7516 26.9298L13.0703 21.2485" stroke="#F0F3F5" stroke-width="1.8"/>
<path d="M25.6634 13.3589C25.9823 13.4281 26.2476 13.4969 26.4473 13.5532C26.4983 13.7337 26.5596 13.9679 26.6221 14.2468C26.7828 14.9638 26.9493 15.9664 26.9737 17.1069C27.0227 19.3954 26.5019 22.1472 24.3255 24.3241C22.233 26.4059 19.6187 26.975 17.3899 26.975C16.1816 26.975 15.1083 26.8085 14.3364 26.6411C14.0176 26.5719 13.7522 26.5031 13.5526 26.4468C13.5016 26.2663 13.4402 26.0321 13.3777 25.7532C13.217 25.0362 13.0505 24.0336 13.0261 22.8931C12.9771 20.6045 13.498 17.8527 15.6743 15.6759C17.7668 13.5941 20.3812 13.025 22.6099 13.025C23.8182 13.025 24.8916 13.1915 25.6634 13.3589Z" stroke="black" stroke-width="1.8"/>
</svg>
