<svg width="40" height="40" viewBox="0 0 40 40" fill="none" xmlns="http://www.w3.org/2000/svg">
<rect width="40" height="40" rx="8" fill="#F0F3F5"/>
<path d="M17.6809 26.4771C16.1609 26.4771 14.8709 26.1771 14.2709 26.0071C13.8909 24.6371 12.8409 19.7471 16.1509 16.4371C17.7109 14.8771 19.7909 14.0771 22.3109 14.0771C23.8309 14.0771 25.1209 14.3771 25.7209 14.5471C26.1009 15.9171 27.1509 20.8071 23.8409 24.1171C22.2809 25.6771 20.2009 26.4771 17.6809 26.4771Z" fill="black"/>
<path d="M22.0697 18.2075L17.9297 22.3475" stroke="#F0F3F5" stroke-width="1.6"/>
<path d="M26.1594 19.1672L21.1094 14.1172" stroke="#F0F3F5" stroke-width="1.6"/>
<path d="M18.8898 26.4372L13.8398 21.3872" stroke="#F0F3F5" stroke-width="1.6"/>
<path d="M25.0339 14.3742C25.3173 14.4356 25.5532 14.4968 25.7307 14.5469C25.776 14.7073 25.8305 14.9154 25.8861 15.1634C26.029 15.8008 26.1769 16.6919 26.1986 17.7057C26.2422 19.7399 25.7792 22.1859 23.8448 24.1209C21.9848 25.9715 19.6609 26.4773 17.6797 26.4773C16.6057 26.4773 15.6516 26.3293 14.9655 26.1805C14.6821 26.119 14.4462 26.0579 14.2687 26.0078C14.2234 25.8474 14.1689 25.6393 14.1133 25.3913C13.9704 24.7539 13.8225 23.8628 13.8008 22.849C13.7572 20.8147 14.2202 18.3687 16.1547 16.4337C18.0147 14.5832 20.3386 14.0773 22.3197 14.0773C23.3938 14.0773 24.3478 14.2254 25.0339 14.3742Z" stroke="black" stroke-width="1.6"/>
</svg>
