<svg width="40" height="40" viewBox="0 0 40 40" fill="none" xmlns="http://www.w3.org/2000/svg">
<rect width="40" height="40" rx="8" fill="#F0F3F5"/>
<path d="M23.756 16.6751L17.9121 22.519C17.309 22.1475 16.801 21.6395 16.4295 21.0364L22.2734 15.1925C22.8765 15.564 23.3845 16.072 23.756 16.6751ZM18.3037 24.673L25.91 17.0667C25.281 15.1618 23.7867 13.6676 21.8818 13.0386L14.2756 20.6448C14.4737 21.2449 14.7577 21.8042 15.1134 22.3086L12.582 24.8399L13.8548 26.1127L16.3497 23.6178C16.9266 24.0762 17.586 24.436 18.3037 24.673ZM23.999 27.2775C25.6559 27.2775 26.999 25.9344 26.999 24.2775C26.999 22.6207 25.6559 21.2775 23.999 21.2775C22.3422 21.2775 20.999 22.6207 20.999 24.2775C20.999 25.9344 22.3422 27.2775 23.999 27.2775Z" fill="#232A31"/>
</svg>
