<svg width="40" height="40" viewBox="0 0 40 40" fill="none" xmlns="http://www.w3.org/2000/svg">
<rect width="40" height="40" rx="8" fill="#F0F3F5"/>
<path d="M24.225 15.9476L17.6506 22.5219C16.9722 22.104 16.4006 21.5325 15.9827 20.854L22.5571 14.2797C23.2356 14.6976 23.8071 15.2691 24.225 15.9476ZM18.0912 24.9451L26.6482 16.3881C25.9406 14.2451 24.2596 12.5641 22.1165 11.8564L13.5595 20.4135C13.7824 21.0886 14.1019 21.7178 14.5021 22.2852L11.6543 25.133L13.0862 26.5648L15.893 23.7581C16.5419 24.2737 17.2837 24.6785 18.0912 24.9451ZM24.4984 27.8753C26.3624 27.8753 27.8734 26.3642 27.8734 24.5003C27.8734 22.6363 26.3624 21.1253 24.4984 21.1253C22.6345 21.1253 21.1234 22.6363 21.1234 24.5003C21.1234 26.3642 22.6345 27.8753 24.4984 27.8753Z" fill="#232A31"/>
</svg>
