<svg width="40" height="40" viewBox="0 0 40 40" fill="none" xmlns="http://www.w3.org/2000/svg">
<rect width="40" height="40" rx="8" fill="#464E56"/>
<path d="M22.0618 11H17.1119C16.7305 12.1347 16.2444 13.2303 15.6605 14.2727H14.9375C14.3162 14.2727 13.8125 14.7764 13.8125 15.3977V24.6023C13.8125 25.2236 14.3162 25.7273 14.9375 25.7273H15.6614C16.2453 26.7697 16.7314 27.8653 17.1128 29L22.0626 29C22.444 27.8653 22.9301 26.7697 23.514 25.7273H24.2371C24.8584 25.7273 25.3621 25.2236 25.3621 24.6023V23.2728H26.1875V20.8182H25.3621V19.9999H26.1875V17.5454H25.3621V15.3977C25.3621 14.7764 24.8584 14.2727 24.2371 14.2727H23.5131C22.9292 13.2303 22.4431 12.1347 22.0618 11ZM15.5 24.0398V15.9602H23.6746V24.0398H15.5ZM19.5687 22.25C20.8113 22.25 21.8187 21.2426 21.8187 20C21.8187 18.7574 20.8113 17.75 19.5687 17.75C18.326 17.75 17.3187 18.7574 17.3187 20C17.3187 21.2426 18.326 22.25 19.5687 22.25Z" fill="#F0F3F5"/>
</svg>
