<svg width="40" height="40" viewBox="0 0 40 40" fill="none" xmlns="http://www.w3.org/2000/svg">
<rect width="40" height="40" rx="8" fill="#464E56"/>
<g clip-path="url(#clip0_4040_14270)">
<path d="M21.8327 12.2773H17.4328C17.0938 13.286 16.6617 14.2598 16.1427 15.1865H15.5C14.9477 15.1865 14.5 15.6342 14.5 16.1865V24.3683C14.5 24.9206 14.9477 25.3683 15.5 25.3683H16.1435C16.6625 26.2949 17.0946 27.2687 17.4336 28.2773L21.8335 28.2773C22.1725 27.2687 22.6045 26.2949 23.1236 25.3683H23.7663C24.3186 25.3683 24.7663 24.9206 24.7663 24.3683V23.1865H25.5V21.0046H24.7663V20.2773H25.5V18.0955H24.7663V16.1865C24.7663 15.6342 24.3186 15.1865 23.7663 15.1865H23.1228C22.6038 14.2598 22.1717 13.286 21.8327 12.2773ZM16 23.8683V16.6865H23.2663V23.8683H16ZM19.6166 22.2773C20.7212 22.2773 21.6166 21.3819 21.6166 20.2773C21.6166 19.1728 20.7212 18.2773 19.6166 18.2773C18.512 18.2773 17.6166 19.1728 17.6166 20.2773C17.6166 21.3819 18.512 22.2773 19.6166 22.2773Z" fill="#F0F3F5"/>
</g>
<defs>
<clipPath id="clip0_4040_14270">
<rect width="16" height="16" fill="white" transform="translate(12 12.2773)"/>
</clipPath>
</defs>
</svg>
