<svg width="40" height="40" viewBox="0 0 40 40" fill="none" xmlns="http://www.w3.org/2000/svg">
<rect width="40" height="40" rx="8" fill="#464E56"/>
<path d="M16.8002 18.1752L15.0153 18.2644L14.7 18.2802V16.3077L16.8813 15.4133L16.8938 15.4082L16.9061 15.4029L17.6352 15.0905C17.9726 16.072 18.9039 16.7773 20 16.7773C21.1374 16.7773 22.0975 16.0177 22.4004 14.9781L22.7417 15.1488L22.7791 15.1674L22.8173 15.1843L25.3 16.2766V18.2802L24.9851 18.2645L23.2002 18.1753V19.9624V25.5773H16.8002V19.9623V18.1752ZM13 18.3652V20.0673L13.4002 20.0473L14.7 19.9823L15.1002 19.9623V21.6644V25.5773V27.2773H16.8002H23.2002H24.9002V25.5773V21.6645V19.9624L25.3 19.9824L26.6002 20.0474L27 20.0674V18.3652V15.1674L23.502 13.6282L22.8002 13.2773H20.0002H17.5502L16.2364 13.8404L13 15.1673V18.3652ZM20 23.2773C21.1046 23.2773 22 22.1581 22 20.7773C22 19.3966 21.1046 18.2773 20 18.2773C18.8954 18.2773 18 19.3966 18 20.7773C18 22.1581 18.8954 23.2773 20 23.2773Z" fill="#F0F3F5"/>
</svg>
