<svg width="40" height="40" viewBox="0 0 40 40" fill="none" xmlns="http://www.w3.org/2000/svg">
<rect width="40" height="40" rx="8" fill="#464E56"/>
<path d="M16.4002 17.6351L14.3922 17.7355L14.0375 17.7532V15.5341L16.4915 14.528L16.5055 14.5222L16.5194 14.5163L17.3396 14.1648C17.7192 15.269 18.7669 16.0625 20 16.0625C21.2796 16.0625 22.3596 15.2079 22.7005 14.0384L23.0844 14.2303L23.1265 14.2514L23.1695 14.2703L25.9625 15.4992V17.7533L25.6082 17.7355L23.6002 17.6351V19.6457V25.9625H16.4002V19.6456V17.6351ZM12.125 17.8489V19.7637L12.5752 19.7412L14.0375 19.6681L14.4877 19.6456V21.5605V25.9625V27.875H16.4002H23.6002H25.5127V25.9625V21.5605V19.6457L25.9625 19.6681L27.4252 19.7413L27.875 19.7638V17.8489V14.2513L23.9397 12.5197L23.1502 12.125H20.0002H17.244L15.766 12.7584L12.125 14.2512V17.8489ZM20 23.375C21.2426 23.375 22.25 22.1158 22.25 20.5625C22.25 19.0092 21.2426 17.75 20 17.75C18.7574 17.75 17.75 19.0092 17.75 20.5625C17.75 22.1158 18.7574 23.375 20 23.375Z" fill="#F0F3F5"/>
</svg>
