<svg width="40" height="40" viewBox="0 0 40 40" fill="none" xmlns="http://www.w3.org/2000/svg">
<rect width="40" height="40" rx="8" fill="#464E56"/>
<path d="M12.5929 14.9886H12.125L12.125 22.8636C13.9736 25.1236 16.4494 26.7862 19.2409 27.6422L20 27.875L20.7684 27.643C23.5965 26.7891 26.0832 25.0652 27.875 22.7164L27.875 14.9886H27.4071C24.6678 14.9886 22.0269 13.9676 20 12.125C17.9731 13.9676 15.3322 14.9886 12.5929 14.9886ZM22.9715 19.5025L20.1761 22.7168L19.5228 23.4679L18.7985 22.785L17.094 21.1779L16.3982 20.5219L17.7102 19.1304L18.406 19.7864L19.3863 20.7106L21.5285 18.2475L22.156 17.5259L23.5991 18.781L22.9715 19.5025Z" fill="#F0F3F5"/>
</svg>
