<svg width="40" height="40" viewBox="0 0 40 40" fill="none" xmlns="http://www.w3.org/2000/svg">
<rect width="40" height="40" rx="8" fill="#F0F3F5"/>
<path d="M12.5929 14.9881H12.125L12.125 22.8631C13.9736 25.1231 16.4494 26.7857 19.2409 27.6417L20 27.8745L20.7684 27.6425C23.5965 26.7886 26.0832 25.0647 27.875 22.716L27.875 14.9881H27.4071C24.6678 14.9881 22.0269 13.9671 20 12.1245C17.9731 13.9671 15.3322 14.9881 12.5929 14.9881ZM22.9715 19.502L20.1761 22.7163L19.5228 23.4675L18.7985 22.7846L17.094 21.1774L16.3982 20.5214L17.7102 19.1299L18.406 19.7859L19.3863 20.7101L21.5285 18.247L22.156 17.5254L23.5991 18.7805L22.9715 19.502Z" fill="#232A31"/>
</svg>
