<svg width="40" height="40" viewBox="0 0 40 40" fill="none" xmlns="http://www.w3.org/2000/svg">
<rect width="40" height="40" rx="8" fill="#F0F3F5"/>
<path d="M13.4159 15.8228H13L13 22.8228C14.6432 24.8316 16.844 26.3095 19.3252 27.0704L20 27.2773L20.683 27.0711C23.1969 26.3121 25.4073 24.7797 27 22.692L27 15.8228H26.5841C24.1492 15.8228 21.8017 14.9152 20 13.2773C18.1983 14.9152 15.8508 15.8228 13.4159 15.8228ZM22.6414 19.8351L20.1565 22.6923L19.5759 23.36L18.932 22.7529L17.4169 21.3244L16.7984 20.7413L17.9647 19.5044L18.5831 20.0875L19.4545 20.909L21.3586 18.7195L21.9164 18.0782L23.1992 19.1938L22.6414 19.8351Z" fill="#232A31"/>
</svg>
