<svg width="40" height="40" viewBox="0 0 40 40" fill="none" xmlns="http://www.w3.org/2000/svg">
<rect width="40" height="40" rx="8" fill="#F0F3F5"/>
<path d="M25.2403 23.8874C26.1871 22.6547 26.75 21.1116 26.75 19.437C26.75 15.3984 23.4761 12.1245 19.4375 12.1245C15.3989 12.1245 12.125 15.3984 12.125 19.437C12.125 23.4756 15.3989 26.7495 19.4375 26.7495C21.1121 26.7495 22.6552 26.1866 23.8879 25.2398L26.0738 27.4257L26.75 28.1019L28.1023 26.7495L27.4262 26.0733L25.2403 23.8874ZM17.1875 18.4808H18.4813V17.187V16.2308H20.3937V17.187V18.4808H21.6875H22.6438V20.3933H21.6875H20.3937V21.687V22.6433H18.4813V21.687V20.3933H17.1875H16.2313V18.4808H17.1875Z" fill="#232A31"/>
</svg>
