<svg width="40" height="40" viewBox="0 0 40 40" fill="none" xmlns="http://www.w3.org/2000/svg">
<rect width="40" height="40" rx="8" fill="#F0F3F5"/>
<path d="M24.658 23.7333C25.4997 22.6375 26 21.2658 26 19.7773C26 16.1875 23.0899 13.2773 19.5 13.2773C15.9101 13.2773 13 16.1875 13 19.7773C13 23.3672 15.9101 26.2773 19.5 26.2773C20.9885 26.2773 22.3601 25.777 23.4559 24.9353L25.399 26.8784L26 27.4794L27.2021 26.2773L26.601 25.6763L24.658 23.7333ZM17.5 18.9273H18.65V17.7773V16.9273H20.35V17.7773V18.9273H21.5H22.35V20.6273H21.5H20.35V21.7773V22.6273H18.65V21.7773V20.6273H17.5H16.65V18.9273H17.5Z" fill="#232A31"/>
</svg>
