<svg width="40" height="40" viewBox="0 0 40 40" fill="none" xmlns="http://www.w3.org/2000/svg">
<rect width="40" height="40" rx="8" fill="#464E56"/>
<path d="M25.2403 23.8879C26.1871 22.6552 26.75 21.1121 26.75 19.4375C26.75 15.3989 23.4761 12.125 19.4375 12.125C15.3989 12.125 12.125 15.3989 12.125 19.4375C12.125 23.4761 15.3989 26.75 19.4375 26.75C21.1121 26.75 22.6552 26.1871 23.8879 25.2403L26.0738 27.4262L26.75 28.1023L28.1023 26.75L27.4262 26.0738L25.2403 23.8879ZM17.1875 18.4813H18.4813V17.1875V16.2312H20.3937V17.1875V18.4813H21.6875H22.6438V20.3937H21.6875H20.3937V21.6875V22.6438H18.4813V21.6875V20.3937H17.1875H16.2313V18.4813H17.1875Z" fill="#F0F3F5"/>
</svg>
