<svg width="40" height="40" viewBox="0 0 40 40" fill="none" xmlns="http://www.w3.org/2000/svg">
<rect width="40" height="40" rx="8" fill="#464E56"/>
<g clip-path="url(#clip0_4209_20056)">
<path d="M23.6816 25.1135C22.3517 26.1396 20.6846 26.75 18.875 26.75C14.5258 26.75 11 23.2242 11 18.875C11 14.5258 14.5258 11 18.875 11C23.2242 11 26.75 14.5258 26.75 18.875C26.75 20.6846 26.1396 22.3517 25.1135 23.6816L25.2159 23.7841L27.4659 26.0341L28.1819 26.75L26.75 28.1819L26.0341 27.4659L23.7841 25.2159L23.6816 25.1135ZM22.8337 17.0752L21.294 15.76L20.6364 16.5299L18.217 19.3624L17.0736 18.1732L16.3718 17.4434L14.9121 18.8469L15.6139 19.5768L17.5315 21.5711L18.3057 22.3763L19.0312 21.5269L22.1761 17.8451L22.8337 17.0752Z" fill="#F0F3F5"/>
</g>
<defs>
<clipPath id="clip0_4209_20056">
<rect width="18" height="18" fill="white" transform="translate(11 11)"/>
</clipPath>
</defs>
</svg>
