<svg width="40" height="40" viewBox="0 0 40 40" fill="none" xmlns="http://www.w3.org/2000/svg">
<rect width="40" height="40" rx="8" fill="#F0F3F5"/>
<g clip-path="url(#clip0_4209_20051)">
<path d="M23.6816 25.113C22.3517 26.1391 20.6846 26.7495 18.875 26.7495C14.5258 26.7495 11 23.2238 11 18.8745C11 14.5253 14.5258 10.9995 18.875 10.9995C23.2242 10.9995 26.75 14.5253 26.75 18.8745C26.75 20.6842 26.1396 22.3512 25.1135 23.6811L25.2159 23.7836L27.4659 26.0336L28.1819 26.7495L26.75 28.1814L26.0341 27.4655L23.7841 25.2155L23.6816 25.113ZM22.8337 17.0747L21.294 15.7595L20.6364 16.5294L18.217 19.3619L17.0736 18.1727L16.3718 17.4429L14.9121 18.8464L15.6139 19.5763L17.5315 21.5706L18.3057 22.3758L19.0312 21.5264L22.1761 17.8446L22.8337 17.0747Z" fill="#232A31"/>
</g>
<defs>
<clipPath id="clip0_4209_20051">
<rect width="18" height="18" fill="white" transform="translate(11 11)"/>
</clipPath>
</defs>
</svg>
