<svg width="40" height="40" viewBox="0 0 40 40" fill="none" xmlns="http://www.w3.org/2000/svg">
<rect width="40" height="40" rx="8" fill="#F0F3F5"/>
<g clip-path="url(#clip0_4040_14179)">
<path d="M23.2725 24.8226C22.0904 25.7348 20.6086 26.2773 19 26.2773C15.134 26.2773 12 23.1433 12 19.2773C12 15.4114 15.134 12.2773 19 12.2773C22.866 12.2773 26 15.4114 26 19.2773C26 20.8859 25.4574 22.3678 24.5453 23.5499L24.6364 23.6409L26.6364 25.6409L27.2728 26.2773L26 27.5501L25.3636 26.9137L23.3636 24.9137L23.2725 24.8226ZM22.5189 17.6775L21.1502 16.5085L20.5657 17.1928L18.4151 19.7105L17.3987 18.6535L16.775 18.0048L15.4775 19.2524L16.1013 19.9011L17.8058 21.6739L18.494 22.3896L19.1389 21.6346L21.9343 18.3619L22.5189 17.6775Z" fill="#232A31"/>
</g>
<defs>
<clipPath id="clip0_4040_14179">
<rect width="16" height="16" fill="white" transform="translate(12 12.2773)"/>
</clipPath>
</defs>
</svg>
