<svg width="40" height="40" viewBox="0 0 40 40" fill="none" xmlns="http://www.w3.org/2000/svg">
<rect width="40" height="40" rx="8" fill="#F0F3F5"/>
<path d="M14.0392 20.0251C14.1156 16.7986 16.7551 14.2064 20 14.2064C23.2449 14.2064 25.8844 16.7986 25.9608 20.0251C25.8512 20.0087 25.7391 20.0002 25.625 20.0002L22.25 20.0002V27.8752L25.625 27.8752C26.8676 27.8752 27.875 26.8678 27.875 25.6252L27.875 24.5002L27.875 22.2502C27.875 22.2495 27.875 22.2487 27.875 22.248V20.1689C27.875 15.8197 24.3492 12.2939 20 12.2939C15.6508 12.2939 12.125 15.8197 12.125 20.1689V22.2502V24.0675V25.6252C12.125 26.8678 13.1324 27.8752 14.375 27.8752H17.75V20.0002H14.375C14.2609 20.0002 14.1488 20.0087 14.0392 20.0251Z" fill="#232A31"/>
</svg>
