<svg width="40" height="40" viewBox="0 0 40 40" fill="none" xmlns="http://www.w3.org/2000/svg">
<rect width="40" height="40" rx="8" fill="#F0F3F5"/>
<path d="M14.7015 20.2999C14.7694 17.4318 17.1156 15.1277 20 15.1277C22.8844 15.1277 25.2306 17.4318 25.2985 20.2999C25.2011 20.2853 25.1014 20.2777 25 20.2777L22 20.2777V27.2777L25 27.2777C26.1046 27.2777 27 26.3823 27 25.2777L27 24.2777L27 22.2777C27 22.2771 27 22.2764 27 22.2758V20.4277C27 16.5617 23.866 13.4277 20 13.4277C16.134 13.4277 13 16.5617 13 20.4277V22.2777V23.8931V25.2777C13 26.3823 13.8954 27.2777 15 27.2777H18V20.2777H15C14.8986 20.2777 14.7989 20.2853 14.7015 20.2999Z" fill="#232A31"/>
</svg>
