<svg width="40" height="40" viewBox="0 0 40 40" fill="none" xmlns="http://www.w3.org/2000/svg">
<rect width="40" height="40" rx="8" fill="#464E56"/>
<path fill-rule="evenodd" clip-rule="evenodd" d="M25 13.2773H15C13.8954 13.2773 13 14.1728 13 15.2773V25.2773C13 26.3819 13.8954 27.2773 15 27.2773H25C26.1046 27.2773 27 26.3819 27 25.2773V15.2773C27 14.1728 26.1046 13.2773 25 13.2773ZM17.4492 16.2673H17.3789V24.2873H18.9689V21.7273H20.9092C22.4192 21.7273 23.4292 20.5073 23.4292 18.9973C23.4292 17.4873 22.4192 16.2673 20.9092 16.2673V16.2573H17.4492V16.2673ZM21.8292 18.9973C21.8292 18.4773 21.5892 17.8573 20.9092 17.8573V17.8473H19.0392V20.1373H20.9092C21.5892 20.1373 21.8292 19.5173 21.8292 18.9973Z" fill="#F0F3F5"/>
</svg>
