<svg width="40" height="40" viewBox="0 0 40 40" fill="none" xmlns="http://www.w3.org/2000/svg">
<rect width="40" height="40" rx="8" fill="#464E56"/>
<rect x="17.1" y="13.8773" width="9.3" height="12.8" stroke="#F0F3F5" stroke-width="1.2"/>
<rect x="13.6" y="20.8773" width="7.2" height="5.8" fill="#464E56" stroke="#F0F3F5" stroke-width="1.2"/>
<path d="M13.6992 22.3774L17.1992 23.7774L20.6992 22.3774" fill="#464E56"/>
<path d="M13.6992 22.3774L17.1992 23.7774L20.6992 22.3774" stroke="#F0F3F5" stroke-width="1.2"/>
<rect x="17.1" y="13.8773" width="9.3" height="12.8" stroke="#F0F3F5" stroke-width="1.2"/>
<rect x="13" y="20.2773" width="8.4" height="7" fill="#F0F3F5"/>
<path d="M13.6992 22.3774L17.1992 23.7774L20.6992 22.3774" fill="#464E56"/>
<path d="M13.6992 22.3774L17.1992 23.7774L20.6992 22.3774" stroke="#464E56" stroke-width="1.2"/>
<path d="M24.1992 22.9023L20.6992 22.9023" stroke="#F0F3F5" stroke-width="1.2"/>
<path d="M24.1992 20.8774H20.6992" stroke="#F0F3F5" stroke-width="1.2"/>
<rect x="13.65" y="20.9273" width="7.1" height="5.7" stroke="#F0F3F5" stroke-width="1.3"/>
<rect x="19.1992" y="16.0273" width="5" height="3" fill="#F0F3F5"/>
</svg>
