<svg width="40" height="40" viewBox="0 0 40 40" fill="none" xmlns="http://www.w3.org/2000/svg">
<rect width="40" height="40" rx="8" fill="#464E56"/>
<path d="M14.7634 26.4778C14.1851 26.4778 13.7188 25.9447 13.7188 25.2836V21.0932H16.0505V14.0879H26.3103V25.2836C26.3103 25.9447 25.844 26.4778 25.2657 26.4778H14.7727H14.7634Z" fill="#464E56"/>
<path d="M26.9907 13.2773H15.3318V20.2827H13V25.2728C13 26.371 13.7835 27.2773 14.7535 27.2773H25.2465C26.2165 27.2773 27 26.3817 27 25.2728V13.2773H26.9907Z" fill="#F0F3F5"/>
<path d="M14.8749 26.4781C14.2313 26.4781 13.709 25.881 13.709 25.1453V20.0166H16.0408V25.1453C16.0408 25.881 15.5184 26.4781 14.8749 26.4781Z" fill="#464E56"/>
<path d="M15.3415 20.8054V25.1345C15.3415 25.433 15.1363 25.6676 14.8752 25.6676C14.614 25.6676 14.4088 25.433 14.4088 25.1345V20.8054H15.3415ZM16.7406 19.2061H13.0098V25.1345C13.0098 26.3073 13.8399 27.267 14.8752 27.267C15.9105 27.267 16.7406 26.3073 16.7406 25.1345V19.2061Z" fill="#F0F3F5"/>
<path d="M24.1992 20.4272H22.1992" stroke="#464E56" stroke-width="1.5"/>
<path d="M24.1992 23.2773L18.1992 23.2773" stroke="#464E56" stroke-width="1.5"/>
<path d="M19.5039 16.6787V21.2103" stroke="#464E56" stroke-width="2.53"/>
<path d="M24.1992 17.4272H22.1992" stroke="#464E56" stroke-width="1.5"/>
</svg>
