<svg width="40" height="40" viewBox="0 0 40 40" fill="none" xmlns="http://www.w3.org/2000/svg">
<rect width="40" height="40" rx="8" fill="#F0F3F5"/>
<path d="M14.1088 26.9758C13.4582 26.9758 12.9336 26.376 12.9336 25.6323V20.9181H15.5568V13.0371H27.0991V25.6323C27.0991 26.376 26.5745 26.9758 25.9239 26.9758H14.1193H14.1088Z" fill="#F0F3F5"/>
<path d="M27.8645 12.125H14.7482V20.006H12.125V25.6199C12.125 26.8554 13.0064 27.875 14.0977 27.875H25.9023C26.9936 27.875 27.875 26.8674 27.875 25.6199V12.125H27.8645Z" fill="#232A31"/>
<path d="M14.2335 26.9763C13.5095 26.9763 12.9219 26.3045 12.9219 25.4768V19.707H15.5451V25.4768C15.5451 26.3045 14.9575 26.9763 14.2335 26.9763Z" fill="#F0F3F5"/>
<path d="M14.758 20.5942V25.4644C14.758 25.8002 14.5272 26.0641 14.2334 26.0641C13.9396 26.0641 13.7087 25.8002 13.7087 25.4644V20.5942H14.758ZM16.332 18.7949H12.1348V25.4644C12.1348 26.7839 13.0686 27.8635 14.2334 27.8635C15.3981 27.8635 16.332 26.7839 16.332 25.4644V18.7949Z" fill="#232A31"/>
<path d="M24.7227 20.1685H22.4727" stroke="#F0F3F5" stroke-width="1.6875"/>
<path d="M24.7227 23.3745L17.9727 23.3745" stroke="#F0F3F5" stroke-width="1.6875"/>
<path d="M19.4414 15.9512V21.0492" stroke="#F0F3F5" stroke-width="2.84625"/>
<path d="M24.7227 16.7935H22.4727" stroke="#F0F3F5" stroke-width="1.6875"/>
</svg>
