<svg width="40" height="40" viewBox="0 0 40 40" fill="none" xmlns="http://www.w3.org/2000/svg">
<rect width="40" height="40" rx="8" fill="#464E56"/>
<path d="M13 13.2773H14H18V15.2773H15V18.2773H13V14.2773V13.2773ZM27 13.2773V14.2773V18.2773L25 18.2773V15.2773L22 15.2773V13.2773H26H27ZM26 27.2773H27V26.2773V22.2773H25V25.2773H22V27.2773H26ZM13 27.2773V26.2773V22.2773H15L15 25.2773L18 25.2773L18 27.2773L14 27.2773H13ZM23.3334 18.944L21 18.4774V22.6032L21 22.6107L21 22.6181V22.6773H20.9985C20.9565 23.5669 20.0778 24.2773 19 24.2773C17.8954 24.2773 17 23.5311 17 22.6107C17 21.6902 17.8954 20.944 19 20.944C19.3643 20.944 19.7058 21.0251 20 21.167V18.2774V16.2773L23.3334 16.944V18.944Z" fill="#F0F3F5"/>
</svg>
