<svg width="40" height="40" viewBox="0 0 40 40" fill="none" xmlns="http://www.w3.org/2000/svg">
<rect width="40" height="40" rx="8" fill="#F0F3F5"/>
<path d="M12.125 12.125H13.25H17.75V14.375H14.375V17.75H12.125V13.25V12.125ZM27.875 12.125V13.25V17.75L25.625 17.75V14.375L22.25 14.375V12.125H26.75H27.875ZM26.75 27.875H27.875V26.75V22.25H25.625V25.625H22.25V27.875H26.75ZM12.125 27.875V26.75V22.25H14.375L14.375 25.625L17.75 25.625L17.75 27.875L13.25 27.875H12.125ZM23.75 18.5L21.125 17.975V22.6166L21.125 22.625L21.125 22.6334V22.7H21.1233C21.076 23.7008 20.0875 24.5 18.875 24.5C17.6324 24.5 16.625 23.6605 16.625 22.625C16.625 21.5894 17.6324 20.75 18.875 20.75C19.2848 20.75 19.6691 20.8413 20 21.0008V17.75V15.5L23.75 16.25V18.5Z" fill="#232A31"/>
</svg>
