<svg width="40" height="40" viewBox="0 0 40 40" fill="none" xmlns="http://www.w3.org/2000/svg">
<rect width="40" height="40" rx="8" fill="#464E56"/>
<path d="M24.3808 25.3886C25.8371 24.0519 26.75 22.1326 26.75 20C26.75 15.9614 23.4761 12.6875 19.4375 12.6875C15.3989 12.6875 12.125 15.9614 12.125 20C12.125 23.8493 15.0992 27.004 18.875 27.2912V27.3011H19.0262C19.1624 27.3087 19.2995 27.3125 19.4375 27.3125C19.5755 27.3125 19.7126 27.3087 19.8488 27.3011H27.875V25.3886H24.3808ZM19.4375 24.5C18.8162 24.5 18.3125 23.9963 18.3125 23.375C18.3125 22.7537 18.8162 22.25 19.4375 22.25C20.0588 22.25 20.5625 22.7537 20.5625 23.375C20.5625 23.9963 20.0588 24.5 19.4375 24.5ZM20.5625 16.625C20.5625 17.2463 20.0588 17.75 19.4375 17.75C18.8162 17.75 18.3125 17.2463 18.3125 16.625C18.3125 16.0037 18.8162 15.5 19.4375 15.5C20.0588 15.5 20.5625 16.0037 20.5625 16.625ZM14.9375 20C14.9375 19.3787 15.4412 18.875 16.0625 18.875C16.6838 18.875 17.1875 19.3787 17.1875 20C17.1875 20.6213 16.6838 21.125 16.0625 21.125C15.4412 21.125 14.9375 20.6213 14.9375 20ZM22.8125 21.125C22.1912 21.125 21.6875 20.6213 21.6875 20C21.6875 19.3787 22.1912 18.875 22.8125 18.875C23.4338 18.875 23.9375 19.3787 23.9375 20C23.9375 20.6213 23.4338 21.125 22.8125 21.125Z" fill="#F0F3F5"/>
</svg>
