<svg width="40" height="40" viewBox="0 0 40 40" fill="none" xmlns="http://www.w3.org/2000/svg">
<rect width="40" height="40" rx="8" fill="#464E56"/>
<path d="M23.894 25.0672C25.1885 23.8791 26 22.173 26 20.2773C26 16.6875 23.0899 13.7773 19.5 13.7773C15.9101 13.7773 13 16.6875 13 20.2773C13 23.699 15.6438 26.5031 19 26.7584V26.7672H19.1344C19.2554 26.7739 19.3773 26.7773 19.5 26.7773C19.6227 26.7773 19.7446 26.7739 19.8656 26.7672H27V25.0672H23.894ZM19.5 24.2773C18.9477 24.2773 18.5 23.8296 18.5 23.2773C18.5 22.7251 18.9477 22.2773 19.5 22.2773C20.0523 22.2773 20.5 22.7251 20.5 23.2773C20.5 23.8296 20.0523 24.2773 19.5 24.2773ZM20.5 17.2773C20.5 17.8296 20.0523 18.2773 19.5 18.2773C18.9477 18.2773 18.5 17.8296 18.5 17.2773C18.5 16.7251 18.9477 16.2773 19.5 16.2773C20.0523 16.2773 20.5 16.7251 20.5 17.2773ZM15.5 20.2773C15.5 19.7251 15.9477 19.2773 16.5 19.2773C17.0523 19.2773 17.5 19.7251 17.5 20.2773C17.5 20.8296 17.0523 21.2773 16.5 21.2773C15.9477 21.2773 15.5 20.8296 15.5 20.2773ZM22.5 21.2773C21.9477 21.2773 21.5 20.8296 21.5 20.2773C21.5 19.7251 21.9477 19.2773 22.5 19.2773C23.0523 19.2773 23.5 19.7251 23.5 20.2773C23.5 20.8296 23.0523 21.2773 22.5 21.2773Z" fill="#F0F3F5"/>
</svg>
