<svg width="40" height="40" viewBox="0 0 40 40" fill="none" xmlns="http://www.w3.org/2000/svg">
<rect width="40" height="40" rx="8" fill="#464E56"/>
<g clip-path="url(#clip0_4209_19879)">
<path d="M12.5 26V15.5C12.5 14.6716 13.1716 14 14 14H16.25V13.85C16.25 12.276 17.526 11 19.1 11H19.4C20.974 11 22.25 12.276 22.25 13.85V14H24.5C25.3284 14 26 14.6716 26 15.5V17.75H26.15C27.724 17.75 29 19.026 29 20.6V20.9C29 22.474 27.724 23.75 26.15 23.75H26V26C26 26.8284 25.3284 27.5 24.5 27.5H20.75V25.25C20.75 24.4216 20.0784 23.75 19.25 23.75C18.4216 23.75 17.75 24.4216 17.75 25.25V27.5H14C13.1716 27.5 12.5 26.8284 12.5 26Z" fill="#F0F3F5"/>
</g>
<defs>
<clipPath id="clip0_4209_19879">
<rect width="18" height="18" fill="white" transform="translate(11 11)"/>
</clipPath>
</defs>
</svg>
