<svg width="40" height="40" viewBox="0 0 40 40" fill="none" xmlns="http://www.w3.org/2000/svg">
<rect width="40" height="40" rx="8" fill="#464E56"/>
<g clip-path="url(#clip0_4040_14025)">
<path d="M13.334 25.6107V16.2773C13.334 15.541 13.9309 14.944 14.6673 14.944H16.6673V14.8107C16.6673 13.4116 17.8015 12.2773 19.2007 12.2773H19.4673C20.8664 12.2773 22.0007 13.4116 22.0007 14.8107V14.944H24.0007C24.737 14.944 25.334 15.541 25.334 16.2773V18.2773H25.4673C26.8664 18.2773 28.0007 19.4116 28.0007 20.8107V21.0773C28.0007 22.4765 26.8664 23.6107 25.4673 23.6107H25.334V25.6107C25.334 26.3471 24.737 26.944 24.0007 26.944H20.6673V24.944C20.6673 24.2076 20.0704 23.6107 19.334 23.6107C18.5976 23.6107 18.0007 24.2076 18.0007 24.944V26.944H14.6673C13.9309 26.944 13.334 26.3471 13.334 25.6107Z" fill="#F0F3F5"/>
</g>
<defs>
<clipPath id="clip0_4040_14025">
<rect width="16" height="16" fill="white" transform="translate(12 12.2773)"/>
</clipPath>
</defs>
</svg>
