<svg width="40" height="40" viewBox="0 0 40 40" fill="none" xmlns="http://www.w3.org/2000/svg">
<rect width="40" height="40" rx="8" fill="#464E56"/>
<path d="M19.0603 13.1166C18.7046 13.0213 18.3391 13.2324 18.2438 13.588L17.3446 16.944H22.0007C22.7371 16.944 23.334 17.541 23.334 18.2773V23.9244L24.3721 24.2025C24.7277 24.2978 25.0933 24.0867 25.1886 23.7311L27.2591 16.0037C27.3544 15.648 27.1433 15.2825 26.7877 15.1872L19.0603 13.1166Z" fill="#F0F3F5"/>
<path fill-rule="evenodd" clip-rule="evenodd" d="M13.334 18.2774C13.334 17.9092 13.6325 17.6107 14.0007 17.6107H22.0007C22.3688 17.6107 22.6673 17.9092 22.6673 18.2774V26.2774C22.6673 26.6456 22.3688 26.9441 22.0007 26.9441H14.0007C13.6325 26.9441 13.334 26.6456 13.334 26.2774V18.2774ZM18.834 22.2774C18.834 22.7377 18.4609 23.1107 18.0007 23.1107C17.5404 23.1107 17.1673 22.7377 17.1673 22.2774C17.1673 21.8172 17.5404 21.4441 18.0007 21.4441C18.4609 21.4441 18.834 21.8172 18.834 22.2774ZM16.1673 21.2774C16.6276 21.2774 17.0007 20.9043 17.0007 20.4441C17.0007 19.9838 16.6276 19.6107 16.1673 19.6107C15.7071 19.6107 15.334 19.9838 15.334 20.4441C15.334 20.9043 15.7071 21.2774 16.1673 21.2774ZM17.0007 24.1107C17.0007 24.571 16.6276 24.9441 16.1673 24.9441C15.7071 24.9441 15.334 24.571 15.334 24.1107C15.334 23.6505 15.7071 23.2774 16.1673 23.2774C16.6276 23.2774 17.0007 23.6505 17.0007 24.1107ZM19.8312 21.2774C20.2915 21.2774 20.6646 20.9043 20.6646 20.4441C20.6646 19.9838 20.2915 19.6107 19.8312 19.6107C19.371 19.6107 18.9979 19.9838 18.9979 20.4441C18.9979 20.9043 19.371 21.2774 19.8312 21.2774ZM20.6646 24.1107C20.6646 24.571 20.2915 24.9441 19.8312 24.9441C19.371 24.9441 18.9979 24.571 18.9979 24.1107C18.9979 23.6505 19.371 23.2774 19.8312 23.2774C20.2915 23.2774 20.6646 23.6505 20.6646 24.1107Z" fill="#F0F3F5"/>
</svg>
