<svg width="40" height="40" viewBox="0 0 40 40" fill="none" xmlns="http://www.w3.org/2000/svg">
<rect width="40" height="40" rx="8" fill="#F0F3F5"/>
<path d="M18.9421 11.9442C18.542 11.837 18.1307 12.0744 18.0235 12.4745L17.0119 16.25H22.2501C23.0785 16.25 23.7501 16.9216 23.7501 17.75V24.1029L24.9178 24.4158C25.3179 24.523 25.7292 24.2856 25.8364 23.8855L28.1658 15.1921C28.273 14.792 28.0355 14.3808 27.6354 14.2736L18.9421 11.9442Z" fill="#232A31"/>
<path fill-rule="evenodd" clip-rule="evenodd" d="M12.5 17.7501C12.5 17.3359 12.8358 17.0001 13.25 17.0001H22.25C22.6642 17.0001 23 17.3359 23 17.7501V26.7501C23 27.1643 22.6642 27.5001 22.25 27.5001H13.25C12.8358 27.5001 12.5 27.1643 12.5 26.7501V17.7501ZM18.6875 22.2501C18.6875 22.7678 18.2678 23.1876 17.75 23.1876C17.2322 23.1876 16.8125 22.7678 16.8125 22.2501C16.8125 21.7323 17.2322 21.3126 17.75 21.3126C18.2678 21.3126 18.6875 21.7323 18.6875 22.2501ZM15.6875 21.1251C16.2053 21.1251 16.625 20.7053 16.625 20.1876C16.625 19.6698 16.2053 19.2501 15.6875 19.2501C15.1697 19.2501 14.75 19.6698 14.75 20.1876C14.75 20.7053 15.1697 21.1251 15.6875 21.1251ZM16.625 24.3126C16.625 24.8303 16.2053 25.2501 15.6875 25.2501C15.1697 25.2501 14.75 24.8303 14.75 24.3126C14.75 23.7948 15.1697 23.3751 15.6875 23.3751C16.2053 23.3751 16.625 23.7948 16.625 24.3126ZM19.8094 21.1251C20.3272 21.1251 20.7469 20.7053 20.7469 20.1876C20.7469 19.6698 20.3272 19.2501 19.8094 19.2501C19.2916 19.2501 18.8719 19.6698 18.8719 20.1876C18.8719 20.7053 19.2916 21.1251 19.8094 21.1251ZM20.7469 24.3126C20.7469 24.8303 20.3272 25.2501 19.8094 25.2501C19.2916 25.2501 18.8719 24.8303 18.8719 24.3126C18.8719 23.7948 19.2916 23.3751 19.8094 23.3751C20.3272 23.3751 20.7469 23.7948 20.7469 24.3126Z" fill="#232A31"/>
</svg>
