<svg width="40" height="40" viewBox="0 0 40 40" fill="none" xmlns="http://www.w3.org/2000/svg">
<rect width="40" height="40" rx="8" fill="#F0F3F5"/>
<path fill-rule="evenodd" clip-rule="evenodd" d="M16.25 14.75C16.25 15.1642 16.5858 15.5 17 15.5L23 15.5C23.4142 15.5 23.75 15.1642 23.75 14.75V12.5C23.75 12.0858 23.4142 11.75 23 11.75C22.5858 11.75 22.25 12.0858 22.25 12.5V13.625H20.75V12.5C20.75 12.0858 20.4142 11.75 20 11.75C19.5858 11.75 19.25 12.0858 19.25 12.5L19.25 13.625L17.75 13.625L17.75 12.5C17.75 12.0858 17.4142 11.75 17 11.75C16.5858 11.75 16.25 12.0858 16.25 12.5L16.25 14.75ZM14 25.2724V27.5L26 27.5V25.2724C26 25.0313 25.8563 24.8134 25.6347 24.7184C24.2381 24.1199 23.2713 22.8167 23.1035 21.3065L22.625 17L17.375 17L16.8965 21.3065C16.7287 22.8167 15.7619 24.1199 14.3653 24.7184C14.1437 24.8134 14 25.0313 14 25.2724Z" fill="#232A31"/>
</svg>
