<svg width="40" height="40" viewBox="0 0 40 40" fill="none" xmlns="http://www.w3.org/2000/svg">
<rect width="40" height="40" rx="8" fill="#F0F3F5"/>
<g clip-path="url(#clip0_4040_13988)">
<path fill-rule="evenodd" clip-rule="evenodd" d="M16.666 15.6105C16.666 15.9787 16.9645 16.2772 17.3327 16.2772L22.666 16.2772C23.0342 16.2772 23.3327 15.9787 23.3327 15.6105V13.6105C23.3327 13.2423 23.0342 12.9438 22.666 12.9438C22.2978 12.9438 21.9993 13.2423 21.9993 13.6105V14.6105H20.666V13.6105C20.666 13.2423 20.3675 12.9438 19.9993 12.9438C19.6312 12.9438 19.3327 13.2423 19.3327 13.6105L19.3327 14.6105L17.9993 14.6105L17.9993 13.6105C17.9993 13.2423 17.7009 12.9438 17.3327 12.9438C16.9645 12.9438 16.666 13.2423 16.666 13.6105L16.666 15.6105ZM14.666 24.9638V26.9438L25.3327 26.9438V24.9638C25.3327 24.7495 25.205 24.5558 25.008 24.4714C23.7666 23.9393 22.9072 22.7809 22.758 21.4386L22.3327 17.6105L17.666 17.6105L17.2407 21.4386C17.0915 22.7809 16.2321 23.9393 14.9907 24.4714C14.7937 24.5558 14.666 24.7495 14.666 24.9638Z" fill="#232A31"/>
</g>
<defs>
<clipPath id="clip0_4040_13988">
<rect width="16" height="16" fill="white" transform="translate(12 12.2773)"/>
</clipPath>
</defs>
</svg>
