<svg width="40" height="40" viewBox="0 0 40 40" fill="none" xmlns="http://www.w3.org/2000/svg">
<rect width="40" height="40" rx="8" fill="#F0F3F5"/>
<path d="M15.1004 13.2773C15.5424 14.3981 16.4296 15.2853 17.5504 15.7273C16.4296 16.1694 15.5424 17.0566 15.1004 18.1773C14.6584 17.0566 13.7712 16.1694 12.6504 15.7273C13.7712 15.2853 14.6584 14.3981 15.1004 13.2773ZM13.5018 19.2773C12.2997 22.9401 13.6307 26.6473 13.6307 26.6473C13.6307 26.6473 15.3907 27.2773 17.6807 27.2773C19.7907 27.2773 22.3507 26.7373 24.4107 24.6873C28.7007 20.3973 26.3707 13.9073 26.3707 13.9073C26.3707 13.9073 24.6107 13.2773 22.3207 13.2773C21.2849 13.2773 20.1407 13.4075 19.0005 13.7824V15.7037C19.6229 15.4394 20.2638 15.273 20.8992 15.1787L25.1017 19.3812C24.894 20.7864 24.3339 22.2177 23.1396 23.4129C21.9397 24.6062 20.5073 25.1675 19.102 25.376L14.8997 21.1737C14.9935 20.5388 15.1592 19.8987 15.4229 19.2773H13.5018ZM14.8512 23.6707L16.6057 25.4253C16.0584 25.3731 15.5715 25.2885 15.1784 25.2032C15.1493 25.1969 15.1207 25.1906 15.0927 25.1843L15.0901 25.1725C14.9995 24.7683 14.9069 24.2543 14.8512 23.6707ZM25.1502 16.8842L23.3954 15.1294C23.9428 15.1816 24.4298 15.2662 24.8229 15.3515C24.8521 15.3578 24.8807 15.3641 24.9087 15.3704L24.9113 15.3821C25.0019 15.7864 25.0945 16.3006 25.1502 16.8842ZM25.7665 15.6029C25.7693 15.6039 25.77 15.6042 25.77 15.6042L25.7683 15.6035L25.7665 15.6029ZM21.4343 17.5709L17.2943 21.7109L18.5671 22.9837L22.7071 18.8437L21.4343 17.5709Z" fill="#232A31"/>
</svg>
