<svg width="40" height="40" viewBox="0 0 40 40" fill="none" xmlns="http://www.w3.org/2000/svg">
<rect width="40" height="40" rx="8" fill="#F0F3F5"/>
<path d="M14.4887 12.125C14.986 13.3859 15.984 14.384 17.2449 14.8813C15.984 15.3785 14.986 16.3766 14.4887 17.6375C13.9914 16.3766 12.9933 15.3785 11.7324 14.8813C12.9933 14.384 13.9914 13.3859 14.4887 12.125ZM12.6902 18.875C11.3379 22.9956 12.8352 27.1662 12.8352 27.1662C12.8352 27.1662 14.8152 27.875 17.3915 27.875C19.7652 27.875 22.6452 27.2675 24.9627 24.9612C29.789 20.135 27.1677 12.8337 27.1677 12.8337C27.1677 12.8337 25.1877 12.125 22.6115 12.125C21.4463 12.125 20.1591 12.2714 18.8763 12.6932V14.8547C19.5765 14.5573 20.2975 14.3701 21.0123 14.264L25.7401 18.9918C25.5065 20.5726 24.8764 22.1829 23.5328 23.5275C22.1829 24.87 20.5714 25.5014 18.9905 25.736L14.2629 21.0084C14.3684 20.2942 14.5549 19.574 14.8515 18.875H12.6902ZM14.2083 23.8176L16.1822 25.7914C15.5664 25.7327 15.0187 25.6375 14.5765 25.5416C14.5437 25.5345 14.5115 25.5274 14.48 25.5203L14.4771 25.5071C14.3751 25.0524 14.271 24.474 14.2083 23.8176ZM25.7947 16.1827L23.8206 14.2085C24.4364 14.2672 24.9842 14.3624 25.4265 14.4584C25.4593 14.4655 25.4915 14.4726 25.523 14.4797L25.5259 14.4929C25.6279 14.9477 25.7321 15.5261 25.7947 16.1827ZM26.488 14.7413C26.4912 14.7424 26.492 14.7427 26.492 14.7427L26.49 14.742L26.488 14.7413ZM21.6143 16.9552L16.9568 21.6127L18.3887 23.0446L23.0462 18.3871L21.6143 16.9552Z" fill="#232A31"/>
</svg>
