<svg width="40" height="40" viewBox="0 0 40 40" fill="none" xmlns="http://www.w3.org/2000/svg">
<rect width="40" height="40" rx="8" fill="#464E56"/>
<path d="M14.4867 12.125C14.984 13.3859 15.9821 14.384 17.243 14.8813C15.9821 15.3785 14.984 16.3766 14.4867 17.6375C13.9894 16.3766 12.9914 15.3785 11.7305 14.8813C12.9914 14.384 13.9894 13.3859 14.4867 12.125ZM12.6883 18.875C11.336 22.9956 12.8333 27.1662 12.8333 27.1662C12.8333 27.1662 14.8133 27.875 17.3895 27.875C19.7633 27.875 22.6433 27.2675 24.9608 24.9612C29.787 20.135 27.1658 12.8337 27.1658 12.8337C27.1658 12.8337 25.1858 12.125 22.6095 12.125C21.4443 12.125 20.1571 12.2714 18.8743 12.6932V14.8547C19.5746 14.5573 20.2956 14.3701 21.0104 14.264L25.7381 18.9918C25.5045 20.5726 24.8745 22.1829 23.5308 23.5275C22.181 24.87 20.5695 25.5014 18.9885 25.736L14.2609 21.0084C14.3665 20.2942 14.5529 19.574 14.8495 18.875H12.6883ZM14.2063 23.8176L16.1802 25.7914C15.5645 25.7327 15.0168 25.6375 14.5745 25.5416C14.5417 25.5345 14.5096 25.5274 14.4781 25.5203L14.4751 25.5071C14.3732 25.0524 14.269 24.474 14.2063 23.8176ZM25.7928 16.1827L23.8186 14.2085C24.4345 14.2672 24.9823 14.3624 25.4246 14.4584C25.4574 14.4655 25.4895 14.4726 25.521 14.4797L25.524 14.4929C25.6259 14.9477 25.7301 15.5261 25.7928 16.1827ZM26.4861 14.7413C26.4893 14.7424 26.4901 14.7427 26.4901 14.7427L26.4881 14.742L26.4861 14.7413ZM21.6123 16.9552L16.9548 21.6127L18.3867 23.0446L23.0442 18.3871L21.6123 16.9552Z" fill="#F0F3F5"/>
</svg>
