<svg width="40" height="40" viewBox="0 0 40 40" fill="none" xmlns="http://www.w3.org/2000/svg">
<rect width="40" height="40" rx="8" fill="#F0F3F5"/>
<path fill-rule="evenodd" clip-rule="evenodd" d="M24.0318 19.9557H26.9714C26.6498 16.3516 23.6514 13.5273 20 13.5273C16.134 13.5273 13 16.6933 13 20.5988C13 22.3082 13.6004 23.8759 14.5998 25.0985H16.776L17.1812 25.9757C17.4773 26.6168 18.1192 27.0273 18.8254 27.0273C19.8258 27.0273 20.6367 26.2164 20.6367 25.2161V24.0201H22.3318V25.3844C22.3318 26.4061 23.1601 27.2344 24.1818 27.2344H24.5905H25.0157L25.2706 26.8942L26.4809 25.2797C27.3951 24.0601 26.5249 22.3201 25.0006 22.3201H24.0318V19.9557ZM22.3318 19.9557H20.6362V22.3201H22.3318V19.9557ZM24.0318 25.3844V24.0201H25.0006C25.1242 24.0201 25.1948 24.1612 25.1206 24.2601L24.166 25.5335C24.0906 25.5256 24.0318 25.4619 24.0318 25.3844Z" fill="#232A31"/>
</svg>
