<svg width="40" height="40" viewBox="0 0 40 40" fill="none" xmlns="http://www.w3.org/2000/svg">
<rect width="40" height="40" rx="8" fill="#F0F3F5"/>
<path fill-rule="evenodd" clip-rule="evenodd" d="M24.5358 19.6381H27.8429C27.481 15.5835 24.1078 12.4062 20 12.4062C15.6508 12.4062 12.125 15.968 12.125 20.3616C12.125 22.2847 12.8005 24.0484 13.9248 25.4238H16.3729L16.8288 26.4106C17.162 27.1319 17.8841 27.5938 18.6786 27.5938C19.804 27.5938 20.7163 26.6815 20.7163 25.5561V24.2106H22.6233V25.7454C22.6233 26.8948 23.5551 27.8267 24.7045 27.8267H25.1643H25.6426L25.9295 27.444L27.291 25.6277C28.3195 24.2556 27.3405 22.2981 25.6257 22.2981H24.5358V19.6381ZM22.6233 19.6381H20.7158V22.2981H22.6233V19.6381ZM24.5358 25.7454V24.2106H25.6257C25.7647 24.2106 25.8441 24.3693 25.7607 24.4805L24.6868 25.9132C24.6019 25.9043 24.5358 25.8326 24.5358 25.7454Z" fill="#232A31"/>
</svg>
