<svg width="40" height="40" viewBox="0 0 40 40" fill="none" xmlns="http://www.w3.org/2000/svg">
<rect width="40" height="40" rx="8" fill="#464E56"/>
<path d="M25.1752 13.4761L27.0633 15.3642L24.9304 17.0076L24.7195 16.7967L23.3263 18.1899C24.3148 19.5153 24.4225 21.1548 23.5031 22.0741C23.3126 22.2647 23.0911 22.4111 22.8479 22.5147C22.211 22.786 21.6033 23.4039 21.5129 24.0903C21.4087 24.8822 21.0661 25.6277 20.4795 26.2143C18.9478 27.746 16.3325 27.6139 14.638 25.9194C12.9434 24.2249 12.8114 21.6095 14.3431 20.0779C14.9294 19.4915 15.6747 19.1489 16.4663 19.0446C17.1526 18.9541 17.7704 18.3462 18.0416 17.7092C18.1452 17.4658 18.2917 17.2441 18.4824 17.0534C19.4059 16.1299 21.056 16.2427 22.3845 17.2436L23.7755 15.8526L23.5143 15.5915L25.1752 13.4761ZM22.5132 21.0842C22.6543 20.943 22.7829 20.667 22.7168 20.1998C22.6506 19.732 22.39 19.1646 21.891 18.6656C21.3919 18.1665 20.8246 17.9059 20.3567 17.8397C19.8895 17.7737 19.6135 17.9022 19.4724 18.0433C19.4138 18.1019 19.3662 18.1718 19.3297 18.2575C18.9322 19.1915 17.9764 20.2576 16.6493 20.4325C16.1413 20.4995 15.6864 20.7144 15.333 21.0678C14.4398 21.961 14.3836 23.6852 15.6279 24.9295C16.8722 26.1737 18.5964 26.1175 19.4896 25.2244C19.8431 24.8708 20.058 24.4158 20.1249 23.9076C20.2996 22.5804 21.3655 21.6245 22.2992 21.2267C22.3848 21.1902 22.4547 21.1427 22.5132 21.0842ZM18.5751 21.9816C19.0965 22.503 19.9418 22.503 20.4632 21.9816C20.9846 21.4602 20.9846 20.6149 20.4632 20.0935C19.9418 19.5721 19.0965 19.5721 18.5751 20.0935C18.0537 20.6149 18.0537 21.4602 18.5751 21.9816Z" fill="#F0F3F5"/>
</svg>
