<svg width="40" height="40" viewBox="0 0 40 40" fill="none" xmlns="http://www.w3.org/2000/svg">
<rect width="40" height="40" rx="8" fill="#464E56"/>
<path d="M25.8209 12.3486L27.945 14.4728L25.5455 16.3216L25.3082 16.0843L23.7409 17.6517C24.8529 19.1427 24.9741 20.9872 23.9398 22.0214C23.7254 22.2358 23.4763 22.4005 23.2027 22.5171C22.4862 22.8223 21.8024 23.5175 21.7008 24.2896C21.5835 25.1805 21.1981 26.0192 20.5382 26.6791C18.8151 28.4023 15.8728 28.2537 13.9665 26.3474C12.0601 24.441 11.9116 21.4988 13.6347 19.7756C14.2944 19.1159 15.1328 18.7306 16.0234 18.6132C16.7955 18.5114 17.4905 17.8275 17.7955 17.1109C17.9121 16.837 18.0769 16.5877 18.2915 16.3731C19.3304 15.3342 21.1868 15.4611 22.6813 16.5871L24.2462 15.0223L23.9524 14.7285L25.8209 12.3486ZM22.8261 20.9077C22.9849 20.7489 23.1295 20.4384 23.0552 19.9129C22.9807 19.3865 22.6876 18.7483 22.1261 18.1868C21.5647 17.6254 20.9264 17.3322 20.4001 17.2578C19.8745 17.1834 19.564 17.328 19.4052 17.4868C19.3393 17.5526 19.2858 17.6314 19.2447 17.7278C18.7975 18.7785 17.7222 19.9778 16.2292 20.1747C15.6577 20.25 15.146 20.4917 14.7484 20.8893C13.7436 21.8942 13.6804 23.8339 15.0802 25.2337C16.48 26.6335 18.4197 26.5703 19.4245 25.5655C19.8223 25.1677 20.064 24.6558 20.1393 24.0841C20.3358 22.591 21.535 21.5156 22.5854 21.0681C22.6817 21.0271 22.7603 20.9735 22.8261 20.9077ZM18.3957 21.9174C18.9823 22.5039 19.9333 22.5039 20.5199 21.9174C21.1065 21.3308 21.1065 20.3798 20.5199 19.7932C19.9333 19.2066 18.9823 19.2066 18.3957 19.7932C17.8092 20.3798 17.8092 21.3308 18.3957 21.9174Z" fill="#F0F3F5"/>
</svg>
