<svg width="40" height="40" viewBox="0 0 40 40" fill="none" xmlns="http://www.w3.org/2000/svg">
<rect width="40" height="40" rx="8" fill="#F0F3F5"/>
<path d="M25.8228 12.3486L27.947 14.4728L25.5474 16.3216L25.3102 16.0843L23.7428 17.6517C24.8549 19.1427 24.976 20.9872 23.9418 22.0214C23.7274 22.2358 23.4782 22.4005 23.2046 22.5171C22.4881 22.8223 21.8044 23.5175 21.7028 24.2896C21.5855 25.1805 21.2001 26.0192 20.5402 26.6791C18.8171 28.4023 15.8748 28.2537 13.9684 26.3474C12.0621 24.441 11.9135 21.4988 13.6367 19.7756C14.2964 19.1159 15.1348 18.7306 16.0253 18.6132C16.7975 18.5114 17.4925 17.8275 17.7975 17.1109C17.9141 16.837 18.0789 16.5877 18.2934 16.3731C19.3324 15.3342 21.1888 15.4611 22.6833 16.5871L24.2481 15.0223L23.9543 14.7285L25.8228 12.3486ZM22.8281 20.9077C22.9869 20.7489 23.1315 20.4384 23.0571 19.9129C22.9827 19.3865 22.6895 18.7483 22.1281 18.1868C21.5666 17.6254 20.9284 17.3322 20.402 17.2578C19.8764 17.1834 19.5659 17.328 19.4071 17.4868C19.3413 17.5526 19.2877 17.6314 19.2467 17.7278C18.7994 18.7785 17.7242 19.9778 16.2312 20.1747C15.6597 20.25 15.148 20.4917 14.7504 20.8893C13.7455 21.8942 13.6823 23.8339 15.0821 25.2337C16.482 26.6335 18.4216 26.5703 19.4265 25.5655C19.8242 25.1677 20.066 24.6558 20.1412 24.0841C20.3378 22.591 21.5369 21.5156 22.5873 21.0681C22.6836 21.0271 22.7623 20.9735 22.8281 20.9077ZM18.3977 21.9174C18.9843 22.5039 19.9353 22.5039 20.5219 21.9174C21.1084 21.3308 21.1084 20.3798 20.5219 19.7932C19.9353 19.2066 18.9843 19.2066 18.3977 19.7932C17.8111 20.3798 17.8111 21.3308 18.3977 21.9174Z" fill="#232A31"/>
</svg>
