<svg width="40" height="40" viewBox="0 0 40 40" fill="none" xmlns="http://www.w3.org/2000/svg">
<rect width="40" height="40" rx="8" fill="#464E56"/>
<path d="M21.4002 13.2773H18.6002V14.2773H14.6H13V15.8773V21.6773V23.2773H14.6H16.5V24.4774H17.4942L16.476 27.2774H18.1785L19.1967 24.4774H20.7616L21.7797 27.2774H23.4822L22.4641 24.4774H23.5V23.2773H25.4H27V21.6773V15.8773V14.2773H25.4H21.4002V13.2773ZM14.6 15.8773H25.4V21.6773H14.6V15.8773ZM20 20.5273C20.9665 20.5273 21.75 19.7438 21.75 18.7773C21.75 17.8108 20.9665 17.0273 20 17.0273C19.0335 17.0273 18.25 17.8108 18.25 18.7773C18.25 19.7438 19.0335 20.5273 20 20.5273Z" fill="#F0F3F5"/>
</svg>
