<svg width="40" height="40" viewBox="0 0 40 40" fill="none" xmlns="http://www.w3.org/2000/svg">
<rect width="40" height="40" rx="8" fill="#F0F3F5"/>
<path d="M21.5752 12.125H18.4252V13.25H13.925H12.125V15.05V21.575V23.375H13.925H16.0625V24.7251H17.181L16.0355 27.8751H17.9508L19.0963 24.7251H20.8568L22.0022 27.8751H23.9175L22.7721 24.7251H23.9375V23.375H26.075H27.875V21.575V15.05V13.25H26.075H21.5752V12.125ZM13.925 15.05H26.075V21.575H13.925V15.05ZM20 20.2812C21.0873 20.2812 21.9688 19.3998 21.9688 18.3125C21.9688 17.2252 21.0873 16.3438 20 16.3438C18.9127 16.3438 18.0312 17.2252 18.0312 18.3125C18.0312 19.3998 18.9127 20.2812 20 20.2812Z" fill="#232A31"/>
</svg>
