<svg width="40" height="40" viewBox="0 0 40 40" fill="none" xmlns="http://www.w3.org/2000/svg">
<rect width="40" height="40" rx="8" fill="#F0F3F5"/>
<path d="M26.9225 11.7227C22.5594 13.9932 17.3631 13.9932 13 11.7227V17.4445C13 22.0285 15.741 26.1683 19.9612 27.958C24.1814 26.1683 26.9225 22.0285 26.9225 17.4445V11.7227ZM17.6385 19.8403C16.998 19.8403 16.4788 19.3211 16.4788 18.6807C16.4788 18.0402 16.998 17.521 17.6385 17.521C18.279 17.521 18.7982 18.0402 18.7982 18.6807C18.7982 19.3211 18.279 19.8403 17.6385 19.8403ZM23.4368 18.6807C23.4368 19.3211 22.9176 19.8403 22.2772 19.8403C21.6367 19.8403 21.1175 19.3211 21.1175 18.6807C21.1175 18.0402 21.6367 17.521 22.2772 17.521C22.9176 17.521 23.4368 18.0402 23.4368 18.6807ZM19.9608 23.1585C18.8626 23.1585 17.9723 22.2682 17.9721 21.17H21.9495C21.9494 22.2682 21.0591 23.1585 19.9608 23.1585Z" fill="#232A31"/>
</svg>
