<svg width="40" height="40" viewBox="0 0 40 40" fill="none" xmlns="http://www.w3.org/2000/svg">
<rect width="40" height="40" rx="8" fill="#464E56"/>
<path d="M26.7563 12.125C22.5236 14.3277 17.4827 14.3277 13.25 12.125V17.6758C13.25 22.1228 15.9091 26.1388 20.0031 27.875C24.0972 26.1388 26.7563 22.1227 26.7563 17.6758V12.125ZM17.7498 20C17.1285 20 16.6248 19.4963 16.6248 18.875C16.6248 18.2537 17.1285 17.75 17.7498 17.75C18.3712 17.75 18.8748 18.2537 18.8748 18.875C18.8748 19.4963 18.3712 20 17.7498 20ZM23.3748 18.875C23.3748 19.4963 22.8712 20 22.2498 20C21.6285 20 21.1248 19.4963 21.1248 18.875C21.1248 18.2537 21.6285 17.75 22.2498 17.75C22.8712 17.75 23.3748 18.2537 23.3748 18.875ZM20.0027 23.2189C18.9373 23.2189 18.0736 22.3553 18.0735 21.2899H21.932C21.9318 22.3553 21.0681 23.2189 20.0027 23.2189Z" fill="#F0F3F5"/>
</svg>
