<svg width="40" height="40" viewBox="0 0 40 40" fill="none" xmlns="http://www.w3.org/2000/svg">
<rect width="40" height="40" rx="8" fill="#464E56"/>
<path d="M26.0056 13.2773C22.2432 15.2353 17.7624 15.2353 14 13.2773V18.2114C14 22.1642 16.3636 25.734 20.0028 27.2773C23.6419 25.734 26.0056 22.1642 26.0056 18.2114V13.2773ZM17.9999 20.2773C17.4476 20.2773 16.9999 19.8296 16.9999 19.2773C16.9999 18.7251 17.4476 18.2773 17.9999 18.2773C18.5521 18.2773 18.9999 18.7251 18.9999 19.2773C18.9999 19.8296 18.5521 20.2773 17.9999 20.2773ZM22.9999 19.2773C22.9999 19.8296 22.5521 20.2773 21.9999 20.2773C21.4476 20.2773 20.9999 19.8296 20.9999 19.2773C20.9999 18.7251 21.4476 18.2773 21.9999 18.2773C22.5521 18.2773 22.9999 18.7251 22.9999 19.2773ZM20.0024 23.1386C19.0554 23.1386 18.2877 22.3709 18.2876 21.4239H21.7173C21.7172 22.3709 20.9495 23.1386 20.0024 23.1386Z" fill="#F0F3F5"/>
</svg>
