<svg width="40" height="40" viewBox="0 0 40 40" fill="none" xmlns="http://www.w3.org/2000/svg">
    <rect width="40" height="40" rx="8" fill="#F0F3F5"/>
    <g clip-path="url(#clip0_4209_20343)">
        <path fill-rule="evenodd" clip-rule="evenodd" d="M20 29C24.9706 29 29 24.9706 29 20C29 15.0294 24.9706 11 20 11C15.0294 11 11 15.0294 11 20C11 24.9706 15.0294 29 20 29ZM20 25.0625C18.136 25.0625 16.625 24.0551 16.625 22.8125H23.375C23.375 24.0551 21.864 25.0625 20 25.0625ZM17.75 19.7188C17.75 20.4954 17.1204 21.125 16.3438 21.125C15.5671 21.125 14.9375 20.4954 14.9375 19.7188C14.9375 18.9421 15.5671 18.3125 16.3438 18.3125C17.1204 18.3125 17.75 18.9421 17.75 19.7188ZM23.6562 21.125C24.4329 21.125 25.0625 20.4954 25.0625 19.7188C25.0625 18.9421 24.4329 18.3125 23.6562 18.3125C22.8796 18.3125 22.25 18.9421 22.25 19.7188C22.25 20.4954 22.8796 21.125 23.6562 21.125Z" fill="#232A31"/>
    </g>
    <defs>
        <clipPath id="clip0_4209_20343">
            <rect width="18" height="18" fill="white" transform="translate(11 11)"/>
        </clipPath>
    </defs>
</svg>
