<svg width="40" height="40" viewBox="0 0 40 40" fill="none" xmlns="http://www.w3.org/2000/svg">
    <rect width="40" height="40" rx="8" fill="#F0F3F5"/>
    <path fill-rule="evenodd" clip-rule="evenodd" d="M25.625 12.125H14.375C13.1324 12.125 12.125 13.1324 12.125 14.375V25.625C12.125 26.8676 13.1324 27.875 14.375 27.875H25.625C26.8676 27.875 27.875 26.8676 27.875 25.625V14.375C27.875 13.1324 26.8676 12.125 25.625 12.125ZM17.1313 15.4883H17.0522V24.5108H18.841V21.6311H21.0238C22.7226 21.6311 23.8588 20.2586 23.8588 18.5599C23.8588 16.8611 22.7226 15.4886 21.0238 15.4886V15.4774H17.1313V15.4883ZM22.0588 18.5599C22.0588 17.9749 21.7888 17.2774 21.0238 17.2774V17.2661H18.9201V19.8424H21.0238C21.7888 19.8424 22.0588 19.1449 22.0588 18.5599Z" fill="#232A31"/>
</svg>
