<svg width="40" height="40" viewBox="0 0 40 40" fill="none" xmlns="http://www.w3.org/2000/svg">
    <rect width="40" height="40" rx="8" fill="#F0F3F5"/>
    <path d="M20.0014 25.7261L16.3789 27.2561V27.8748H23.6239V27.2561L20.0014 25.7261Z" fill="#232A31"/>
    <path d="M20 22.1826V27.8751" stroke="#232A31" stroke-width="1.8"/>
    <path d="M23.8806 13.925C24.1619 14.9937 24.3194 16.0737 24.3194 17.0412C24.3194 19.415 22.3844 21.3612 19.9994 21.3612C17.6144 21.3612 15.6794 19.4262 15.6794 17.0412C15.6794 16.0737 15.8369 14.9937 16.1181 13.925H23.8806ZM25.1969 12.125H14.8019C14.2281 13.7337 13.8906 15.4775 13.8906 17.0412C13.8906 20.4163 16.6244 23.1613 20.0106 23.1613C23.3969 23.1613 26.1306 20.4275 26.1306 17.0412C26.1306 15.4775 25.7931 13.7337 25.2194 12.125H25.1969Z" fill="#232A31"/>
    <path d="M19.9997 22.2607C17.3784 22.2607 15.1959 20.3032 14.8359 17.772H25.1522C24.7922 20.3145 22.6097 22.2607 19.9884 22.2607H19.9997Z" fill="#232A31"/>
    <path d="M23.9931 18.6721C23.3519 20.2471 21.7994 21.3496 19.9994 21.3496C18.1994 21.3496 16.6469 20.2358 16.0056 18.6721H23.9931ZM26.1081 16.8721H13.8906C13.8906 16.8721 13.8906 16.9846 13.8906 17.0408C13.8906 20.4158 16.6244 23.1608 20.0106 23.1608C23.3969 23.1608 26.1306 20.4271 26.1306 17.0408C26.1306 16.9846 26.1306 16.9283 26.1306 16.8721H26.1081Z" fill="#232A31"/>
</svg>
