<svg width="48px" height="48px" viewBox="0 0 14 14" fill="none" xmlns="http://www.w3.org/2000/svg">
<path d="M8.2 3.5C8.2 2.83726 7.66274 2.3 7 2.3C6.33726 2.3 5.8 2.83726 5.8 3.5C5.8 4.16274 6.33726 4.7 7 4.7C7.66274 4.7 8.2 4.16274 8.2 3.5ZM10 3.5C10 5.15685 8.65685 6.5 7 6.5C5.34315 6.5 4 5.15685 4 3.5C4 1.84315 5.34315 0.5 7 0.5C8.65685 0.5 10 1.84315 10 3.5ZM10.7058 9.69073C10.2577 9.43468 9.75052 9.3 9.23444 9.3H4.76556C4.24948 9.3 3.74232 9.43468 3.29423 9.69073C2.53686 10.1235 2.01716 10.8618 1.85436 11.7H12.1456C11.9828 10.8618 11.4631 10.1235 10.7058 9.69073ZM0 12.2656C0 10.5554 0.916352 8.97637 2.40118 8.1279C3.12125 7.71643 3.93623 7.5 4.76556 7.5H9.23444C10.0638 7.5 10.8788 7.71643 11.5988 8.1279C13.0836 8.97637 14 10.5554 14 12.2656V13.4322C14 13.4697 13.9697 13.5 13.9322 13.5H0.0677594C0.0303368 13.5 0 13.4697 0 13.4322V12.2656Z" fill="#7E1FFF"/>
</svg>
