<svg width="48px" height="48px" viewBox="0 0 16 16" fill="none" xmlns="http://www.w3.org/2000/svg">
<path d="M0.478239 2.90909C3.25995 2.90837 5.94165 1.87123 8 0C10.0591 1.87188 12.7419 2.90909 15.5247 2.90909H16L16 10.7596C14.1798 13.1456 11.6536 14.8968 8.78063 15.7643L8 16L7.2288 15.7635C4.39309 14.8939 1.87796 13.2049 6.48498e-06 10.9091L0 2.90909L0.478239 2.90909ZM8.89312 2.88823C8.89766 2.92485 8.9 2.96215 8.9 3V13.829C10.9607 13.0831 12.7892 11.8067 14.2 10.1283L14.2 4.64138C12.32 4.44864 10.5094 3.84817 8.89312 2.88823ZM7.10687 2.88824C5.49059 3.84817 3.68003 4.44864 1.8 4.64138L1.80001 10.2434C3.24765 11.8519 5.06772 13.0808 7.1 13.8223V3C7.1 2.96216 7.10234 2.92486 7.10687 2.88824Z" fill="#7E1FFF"/>
</svg>
