<svg width="286" height="111" viewBox="0 0 286 111" fill="none" xmlns="http://www.w3.org/2000/svg">
<mask id="path-1-outside-1_5016_22759" maskUnits="userSpaceOnUse" x="0" y="0" width="286" height="111" fill="black">
<rect fill="white" width="286" height="111"/>
<path fill-rule="evenodd" clip-rule="evenodd" d="M9 1C4.58172 1 1 4.58172 1 9V93C1 97.4183 4.58173 101 9.00001 101H13.8889L21 109L28.1111 101H277C281.418 101 285 97.4183 285 93V9C285 4.58172 281.418 1 277 1H9Z"/>
</mask>
<path fill-rule="evenodd" clip-rule="evenodd" d="M9 1C4.58172 1 1 4.58172 1 9V93C1 97.4183 4.58173 101 9.00001 101H13.8889L21 109L28.1111 101H277C281.418 101 285 97.4183 285 93V9C285 4.58172 281.418 1 277 1H9Z" fill="#1D2228"/>
<path d="M13.8889 101L14.6363 100.336L14.338 100H13.8889V101ZM21 109L20.2526 109.664L21 110.505L21.7474 109.664L21 109ZM28.1111 101V100H27.662L27.3637 100.336L28.1111 101ZM2 9C2 5.13401 5.13401 2 9 2V0C4.02944 0 0 4.02944 0 9H2ZM2 93V9H0V93H2ZM9.00001 100C5.13401 100 2 96.866 2 93H0C0 97.9706 4.02944 102 9.00001 102V100ZM13.8889 100H9.00001V102H13.8889V100ZM21.7474 108.336L14.6363 100.336L13.1415 101.664L20.2526 109.664L21.7474 108.336ZM27.3637 100.336L20.2526 108.336L21.7474 109.664L28.8585 101.664L27.3637 100.336ZM277 100H28.1111V102H277V100ZM284 93C284 96.866 280.866 100 277 100V102C281.971 102 286 97.9706 286 93H284ZM284 9V93H286V9H284ZM277 2C280.866 2 284 5.13401 284 9H286C286 4.02944 281.971 0 277 0V2ZM9 2H277V0H9V2Z" fill="#12A9FF" mask="url(#path-1-outside-1_5016_22759)"/>
</svg>
