<svg width="322" height="93" viewBox="0 0 322 93" fill="none" xmlns="http://www.w3.org/2000/svg">
<mask id="path-1-outside-1_5901_65295" maskUnits="userSpaceOnUse" x="0" y="0" width="322" height="93" fill="black">
<rect fill="white" width="322" height="93"/>
<path fill-rule="evenodd" clip-rule="evenodd" d="M104.111 10H313C317.418 10 321 13.5817 321 18V84C321 88.4183 317.418 92 313 92H8.99999C4.58171 92 1 88.4183 1 84V18C1 13.5817 4.58172 10 9 10H89.8889L97 2L104.111 10Z"/>
</mask>
<path fill-rule="evenodd" clip-rule="evenodd" d="M104.111 10H313C317.418 10 321 13.5817 321 18V84C321 88.4183 317.418 92 313 92H8.99999C4.58171 92 1 88.4183 1 84V18C1 13.5817 4.58172 10 9 10H89.8889L97 2L104.111 10Z" fill="white"/>
<path d="M104.111 10L103.364 10.6644L103.662 11H104.111V10ZM89.8889 10V11H90.338L90.6363 10.6644L89.8889 10ZM97 2L97.7474 1.33564L97 0.494801L96.2526 1.33564L97 2ZM104.111 11H313V9H104.111V11ZM313 11C316.866 11 320 14.134 320 18H322C322 13.0294 317.971 9 313 9V11ZM320 18V84H322V18H320ZM320 84C320 87.866 316.866 91 313 91V93C317.971 93 322 88.9706 322 84H320ZM313 91H8.99999V93H313V91ZM8.99999 91C5.134 91 2 87.866 2 84H0C0 88.9706 4.02943 93 8.99999 93V91ZM2 84V18H0V84H2ZM2 18C2 14.134 5.13401 11 9 11V9C4.02944 9 0 13.0294 0 18H2ZM9 11H89.8889V9H9V11ZM90.6363 10.6644L97.7474 2.66436L96.2526 1.33564L89.1415 9.33564L90.6363 10.6644ZM96.2526 2.66436L103.364 10.6644L104.859 9.33564L97.7474 1.33564L96.2526 2.66436Z" fill="url(#paint0_linear_5901_65295)" mask="url(#path-1-outside-1_5901_65295)"/>
<defs>
<linearGradient id="paint0_linear_5901_65295" x1="1" y1="2" x2="327.065" y2="40.1176" gradientUnits="userSpaceOnUse">
<stop offset="0.16" stop-color="#544AFF"/>
<stop offset="1" stop-color="#DD00FF"/>
</linearGradient>
</defs>
</svg>
