<svg width="18" height="18" viewBox="0 0 18 18" fill="none" xmlns="http://www.w3.org/2000/svg">
<path fill-rule="evenodd" clip-rule="evenodd" d="M2.58301 8.99967C2.58301 5.46176 5.46176 2.58301 8.99967 2.58301C12.537 2.58301 15.4163 5.46176 15.4163 8.99967C15.4163 12.5376 12.537 15.4163 8.99967 15.4163C5.46176 15.4163 2.58301 12.5376 2.58301 8.99967ZM3.74967 8.99967C3.74967 11.8942 6.10576 14.2497 8.99967 14.2497C11.8942 14.2497 14.2497 11.8942 14.2497 8.99967C14.2497 6.10517 11.8942 3.74967 8.99967 3.74967C6.10576 3.74967 3.74967 6.10517 3.74967 8.99967ZM8.41634 6.08301C8.41634 5.76042 8.67767 5.49967 8.99967 5.49967C9.32167 5.49967 9.58301 5.76042 9.58301 6.08301C9.58301 6.40501 9.32167 6.66634 8.99967 6.66634C8.67767 6.66634 8.41634 6.40501 8.41634 6.08301ZM8.41634 11.333V8.41634C8.41634 8.09376 8.67767 7.83301 8.99967 7.83301C9.32167 7.83301 9.58301 8.09376 9.58301 8.41634V11.333C9.58301 11.655 9.32167 11.9163 8.99967 11.9163C8.67767 11.9163 8.41634 11.655 8.41634 11.333Z" fill="#6001D2"/>
</svg>
